<?xml version="1.0" encoding="UTF-8" standalone="no"?>
<!-- Created with Inkscape (http://www.inkscape.org/) -->
<svg xmlns:dc="http://purl.org/dc/elements/1.1/" xmlns:cc="http://creativecommons.org/ns#" xmlns:rdf="http://www.w3.org/1999/02/22-rdf-syntax-ns#" xmlns:svg="http://www.w3.org/2000/svg" xmlns="http://www.w3.org/2000/svg" xmlns:sodipodi="http://sodipodi.sourceforge.net/DTD/sodipodi-0.dtd" xmlns:inkscape="http://www.inkscape.org/namespaces/inkscape" id="svg2" version="1.1" inkscape:version="0.48.0 r9654" width="375.13516" height="606.5625" xml:space="preserve" sodipodi:docname="Dubrovnik_grb.svg"><metadata id="metadata8"><rdf:RDF><cc:Work rdf:about=""><dc:format>image/svg+xml</dc:format><dc:type rdf:resource="http://purl.org/dc/dcmitype/StillImage"/></cc:Work></rdf:RDF></metadata><defs id="defs6"><clipPath clipPathUnits="userSpaceOnUse" id="clipPath24"><path d="M 0,486 300,486 300,0 0,0 0,486 z" id="path26" inkscape:connector-curvature="0"/></clipPath><clipPath clipPathUnits="userSpaceOnUse" id="clipPath58"><path d="m -35.679,42.4371 71.3577,0 0,-84.8747 -71.3577,0 0,84.8747 z" id="path60" inkscape:connector-curvature="0"/></clipPath><clipPath clipPathUnits="userSpaceOnUse" id="clipPath124"><path d="m -23.8858,37.8819 47.7722,0 0,-75.7647 -47.7722,0 0,75.7647 z" id="path126" inkscape:connector-curvature="0"/></clipPath><clipPath clipPathUnits="userSpaceOnUse" id="clipPath142"><path d="m -23.8858,37.8819 47.7722,0 0,-75.7647 -47.7722,0 0,75.7647 z" id="path144" inkscape:connector-curvature="0"/></clipPath><clipPath clipPathUnits="userSpaceOnUse" id="clipPath160"><path d="m -41.3878,67.4658 82.7755,0 0,-134.9305 -82.7755,0 0,134.9305 z" id="path162" inkscape:connector-curvature="0"/></clipPath><clipPath clipPathUnits="userSpaceOnUse" id="clipPath178"><path d="m -41.3878,67.4658 82.7755,0 0,-134.9305 -82.7755,0 0,134.9305 z" id="path180" inkscape:connector-curvature="0"/></clipPath><clipPath clipPathUnits="userSpaceOnUse" id="clipPath220"><path d="m -15.7143,24.8553 31.4289,0 0,-49.7105 -31.4289,0 0,49.7105 z" id="path222" inkscape:connector-curvature="0"/></clipPath><clipPath clipPathUnits="userSpaceOnUse" id="clipPath238"><path d="m -16.3293,12.5306 32.6585,0 0,-25.0607 -32.6585,0 0,25.0607 z" id="path240" inkscape:connector-curvature="0"/></clipPath><clipPath clipPathUnits="userSpaceOnUse" id="clipPath256"><path d="m -34.4753,24.0811 68.9502,0 0,-48.162 -68.9502,0 0,48.162 z" id="path258" inkscape:connector-curvature="0"/></clipPath><clipPath clipPathUnits="userSpaceOnUse" id="clipPath282"><path d="m -15.5698,15.5698 31.1396,0 0,-31.1396 -31.1396,0 0,31.1396 z" id="path284" inkscape:connector-curvature="0"/></clipPath><clipPath clipPathUnits="userSpaceOnUse" id="clipPath308"><path d="m -15.5698,15.5698 31.1396,0 0,-31.1396 -31.1396,0 0,31.1396 z" id="path310" inkscape:connector-curvature="0"/></clipPath><clipPath clipPathUnits="userSpaceOnUse" id="clipPath334"><path d="m -15.5698,15.5698 31.1396,0 0,-31.1396 -31.1396,0 0,31.1396 z" id="path336" inkscape:connector-curvature="0"/></clipPath><clipPath clipPathUnits="userSpaceOnUse" id="clipPath360"><path d="m -15.5698,15.5698 31.1396,0 0,-31.1396 -31.1396,0 0,31.1396 z" id="path362" inkscape:connector-curvature="0"/></clipPath><clipPath clipPathUnits="userSpaceOnUse" id="clipPath386"><path d="m -6.16455,6.16455 12.3291,0 0,-12.3291 -12.3291,0 0,12.3291 z" id="path388" inkscape:connector-curvature="0"/></clipPath><clipPath clipPathUnits="userSpaceOnUse" id="clipPath404"><path d="m -6.16455,6.16455 12.3291,0 0,-12.3291 -12.3291,0 0,12.3291 z" id="path406" inkscape:connector-curvature="0"/></clipPath><clipPath clipPathUnits="userSpaceOnUse" id="clipPath422"><path d="m -5.50342,5.50342 11.00684,0 0,-11.00684 -11.00684,0 0,11.00684 z" id="path424" inkscape:connector-curvature="0"/></clipPath><clipPath clipPathUnits="userSpaceOnUse" id="clipPath440"><path d="m -5.50342,5.50342 11.00684,0 0,-11.00684 -11.00684,0 0,11.00684 z" id="path442" inkscape:connector-curvature="0"/></clipPath><clipPath clipPathUnits="userSpaceOnUse" id="clipPath458"><path d="m -5.50342,5.50342 11.00684,0 0,-11.00684 -11.00684,0 0,11.00684 z" id="path460" inkscape:connector-curvature="0"/></clipPath><clipPath clipPathUnits="userSpaceOnUse" id="clipPath476"><path d="m -5.50342,5.50342 11.00684,0 0,-11.00684 -11.00684,0 0,11.00684 z" id="path478" inkscape:connector-curvature="0"/></clipPath><clipPath clipPathUnits="userSpaceOnUse" id="clipPath494"><path d="m -5.50342,5.50342 11.00684,0 0,-11.00684 -11.00684,0 0,11.00684 z" id="path496" inkscape:connector-curvature="0"/></clipPath><clipPath clipPathUnits="userSpaceOnUse" id="clipPath512"><path d="m -5.50342,5.50342 11.00684,0 0,-11.00684 -11.00684,0 0,11.00684 z" id="path514" inkscape:connector-curvature="0"/></clipPath><clipPath clipPathUnits="userSpaceOnUse" id="clipPath530"><path d="m -5.50342,5.50342 11.00684,0 0,-11.00684 -11.00684,0 0,11.00684 z" id="path532" inkscape:connector-curvature="0"/></clipPath><clipPath clipPathUnits="userSpaceOnUse" id="clipPath548"><path d="m -5.50342,5.50342 11.00684,0 0,-11.00684 -11.00684,0 0,11.00684 z" id="path550" inkscape:connector-curvature="0"/></clipPath><clipPath clipPathUnits="userSpaceOnUse" id="clipPath566"><path d="m -5.50342,5.50342 11.00684,0 0,-11.00684 -11.00684,0 0,11.00684 z" id="path568" inkscape:connector-curvature="0"/></clipPath><clipPath clipPathUnits="userSpaceOnUse" id="clipPath584"><path d="m -5.50342,5.50342 11.00684,0 0,-11.00684 -11.00684,0 0,11.00684 z" id="path586" inkscape:connector-curvature="0"/></clipPath><clipPath clipPathUnits="userSpaceOnUse" id="clipPath602"><path d="m -5.50342,5.50342 11.00684,0 0,-11.00684 -11.00684,0 0,11.00684 z" id="path604" inkscape:connector-curvature="0"/></clipPath><clipPath clipPathUnits="userSpaceOnUse" id="clipPath620"><path d="m -5.50342,5.50342 11.00684,0 0,-11.00684 -11.00684,0 0,11.00684 z" id="path622" inkscape:connector-curvature="0"/></clipPath><clipPath clipPathUnits="userSpaceOnUse" id="clipPath638"><path d="m -15.7143,24.8553 31.4289,0 0,-49.7105 -31.4289,0 0,49.7105 z" id="path640" inkscape:connector-curvature="0"/></clipPath><clipPath clipPathUnits="userSpaceOnUse" id="clipPath656"><path d="m -34.4753,24.0811 68.9502,0 0,-48.162 -68.9502,0 0,48.162 z" id="path658" inkscape:connector-curvature="0"/></clipPath><clipPath clipPathUnits="userSpaceOnUse" id="clipPath674"><path d="m -16.3293,12.5306 32.6585,0 0,-25.0607 -32.6585,0 0,25.0607 z" id="path676" inkscape:connector-curvature="0"/></clipPath></defs><sodipodi:namedview pagecolor="#ffffff" bordercolor="#666666" borderopacity="1" objecttolerance="10" gridtolerance="10" guidetolerance="10" inkscape:pageopacity="0" inkscape:pageshadow="2" inkscape:window-width="640" inkscape:window-height="480" id="namedview4" showgrid="false" inkscape:zoom="2.4631951" inkscape:cx="19.373632" inkscape:cy="290.52181" inkscape:window-x="100" inkscape:window-y="100" inkscape:window-maximized="0" inkscape:current-layer="g10" fit-margin-top="0" fit-margin-left="0" fit-margin-right="0" fit-margin-bottom="0"/><g id="g10" inkscape:groupmode="layer" inkscape:label="Dubrovnik_grb" transform="matrix(1.25,0,0,-1.25,1.3896052,607.1875)"><g id="g12" transform="translate(148.6338,329.8857)"><path d="m 0,0 75.509,17.878 9.647,15.173 35.842,30.53 0,20.548 -12.616,9.911 -28.177,14.217 -24.557,-6.468 -14.54,6.468 -6.082,-6.969 -17,-7.248 -5.246,9.864 -13.689,14.067 -13.941,-14.067 -2.323,-9.864 -13.28,0 -6.482,7.248 -18.849,2.616 -21.237,2.067 -19.933,-4.683 -17.695,-12.031 -10.985,-7.173 7.553,-15.02 21.127,-23.335 7.988,-10.678 L -71.065,14.994 0,0 z" style="fill:#ff0000;fill-opacity:1;fill-rule:nonzero;stroke:none" id="path14" inkscape:connector-curvature="0"/></g><g id="g16" transform="translate(84.1465,319.3364)"><path d="m 0,0 129.684,0 1.93,-20.348 15.613,-13.411 27.14,-7.437 23.766,-14.265 0,-29.786 -18.485,-28.928 -20.749,-24.148 -18.862,-13.33 -16.369,-18.107 -2.684,-16.222 5.961,-13.203 10.075,-9.158 -16.884,-4.744 -17.05,-10.849 2.212,-15.991 -6.232,-8.874 -33.677,-16.779 -29.471,13.96 -11.363,6.035 -12.026,29.418 -12.529,0 -3.879,10.396 15.653,15.725 -7.138,19.909 -16.622,15.845 -17.965,12.56 -11.843,16.016 -15.468,21.219 -15.089,34.865 11.205,22.1 20.106,6.336 15.435,7.437 11.35,2.071 10.9,11.34 L 0,0 z" style="fill:#000099;fill-opacity:1;fill-rule:nonzero;stroke:none" id="path18" inkscape:connector-curvature="0"/></g><path inkscape:connector-curvature="0" id="path30" style="fill:#ffcc00;fill-opacity:1;fill-rule:nonzero;stroke:none" d="m 152.4609,46.5 c -1.023,-15.063 -2,-21.5 4.75,-26.75 1.402,-1.091 4.375,-2.5 5.875,-4.125 1.5,-1.625 2.75,-3.125 2.125,-5 -0.625,-1.875 -1.875,-1.75 -3.375,-1.5 -1.5,0.25 -5.125,2 -8,6.5 C 152.7109,5 151.7729,3.062 148.4609,1 l -0.086,0 c -3.312,2.062 -4.25,4 -5.375,14.625 -2.875,-4.5 -6.5,-6.25 -8,-6.5 -1.5,-0.25 -2.75,-0.375 -3.375,1.5 -0.625,1.875 0.625,3.375 2.125,5 1.5,1.625 4.473,3.034 5.875,4.125 6.75,5.25 5.875,12.375 4.75,26.75 l 8.086,0 z"/><path inkscape:connector-curvature="0" id="path34" style="fill:none;stroke:#000000;stroke-width:1;stroke-linecap:butt;stroke-linejoin:miter;stroke-miterlimit:4;stroke-opacity:1;stroke-dasharray:none" d="m 152.4609,46.5 c -1.023,-15.063 -2,-21.5 4.75,-26.75 1.402,-1.091 4.375,-2.5 5.875,-4.125 1.5,-1.625 2.75,-3.125 2.125,-5 -0.625,-1.875 -1.875,-1.75 -3.375,-1.5 -1.5,0.25 -5.125,2 -8,6.5 C 152.7109,5 151.7729,3.062 148.4609,1 l -0.086,0 c -3.312,2.062 -4.25,4 -5.375,14.625 -2.875,-4.5 -6.5,-6.25 -8,-6.5 -1.5,-0.25 -2.75,-0.375 -3.375,1.5 -0.625,1.875 0.625,3.375 2.125,5 1.5,1.625 4.473,3.034 5.875,4.125 6.75,5.25 5.875,12.375 4.75,26.75 l 8.086,0 z"/><path inkscape:connector-curvature="0" id="path38" style="fill:#ffcc00;fill-opacity:1;fill-rule:nonzero;stroke:none" d="m 100.9629,91.4258 c 4.228,-5.09 6.4,-12.44 6.834,-22.534 22.073,30.763 -19.419,57.526 -42.351,31.591 10.826,0.773 19.32,0.138 25.772,-2.297 l -15.588,-20.287 -4.362,3.115 c 0.156,0.578 0.248,1.183 0.248,1.81 0,3.81 -3.089,6.899 -6.898,6.899 -3.81,0 -6.898,-3.089 -6.898,-6.899 0,-3.809 3.088,-6.898 6.898,-6.898 1.472,0 2.833,0.465 3.953,1.25 l 4.229,-2.961 -25.288,-32.914 2.897,-11.175 13.933,0 21.064,35.26 3.077,-2.155 c -0.264,-0.732 -0.416,-1.517 -0.416,-2.339 0,-3.81 3.089,-6.899 6.898,-6.899 3.81,0 6.898,3.089 6.898,6.899 0,3.809 -3.088,6.898 -6.898,6.898 -1.355,0 -2.614,-0.396 -3.68,-1.071 l -3.563,2.544 13.241,22.163 z"/><path inkscape:connector-curvature="0" id="path42" style="fill:none;stroke:#000000;stroke-width:1;stroke-linecap:butt;stroke-linejoin:miter;stroke-miterlimit:4;stroke-opacity:1;stroke-dasharray:none" d="m 100.9629,91.4258 c 4.228,-5.09 6.4,-12.44 6.834,-22.534 22.073,30.763 -19.419,57.526 -42.351,31.591 10.826,0.773 19.32,0.138 25.772,-2.297 l -15.588,-20.287 -4.362,3.115 c 0.156,0.578 0.248,1.183 0.248,1.81 0,3.81 -3.089,6.899 -6.898,6.899 -3.81,0 -6.898,-3.089 -6.898,-6.899 0,-3.809 3.088,-6.898 6.898,-6.898 1.472,0 2.833,0.465 3.953,1.25 l 4.229,-2.961 -25.288,-32.914 2.897,-11.175 13.933,0 21.064,35.26 3.077,-2.155 c -0.264,-0.732 -0.416,-1.517 -0.416,-2.339 0,-3.81 3.089,-6.899 6.898,-6.899 3.81,0 6.898,3.089 6.898,6.899 0,3.809 -3.088,6.898 -6.898,6.898 -1.355,0 -2.614,-0.396 -3.68,-1.071 l -3.563,2.544 13.241,22.163 z"/><path inkscape:connector-curvature="0" id="path46" style="fill:#ffcc00;fill-opacity:1;fill-rule:nonzero;stroke:none" d="m 232.7344,291.5024 c 0,0 36.686,47.217 34.082,61.181 -11.624,-4.478 -20.71,-19.923 -27.543,-29.54 -5.864,-8.252 -11.451,-16.721 -16.716,-25.369 -4.532,8.728 -5.491,19.771 -1.183,28.756 -3.207,-0.75 -6.413,-1.501 -9.62,-2.251 -2.879,-0.674 -2.587,-4.985 -3.044,-7.622 -1.903,-10.957 -1.37,-21.77 7.553,-29.591 10.757,-9.429 22.593,-11.561 35.937,-5.566 6.425,2.886 22.181,15.297 16.036,23.493 -10.14,-8.748 -21.597,-16.23 -35.502,-13.491"/><path inkscape:connector-curvature="0" id="path50" style="fill:none;stroke:#000000;stroke-width:1;stroke-linecap:butt;stroke-linejoin:miter;stroke-miterlimit:4;stroke-opacity:1;stroke-dasharray:none" d="m 232.7344,291.5024 c 0,0 36.686,47.217 34.082,61.181 -11.624,-4.478 -20.71,-19.923 -27.543,-29.54 -5.864,-8.252 -11.451,-16.721 -16.716,-25.369 -4.532,8.728 -5.491,19.771 -1.183,28.756 -3.207,-0.75 -6.413,-1.501 -9.62,-2.251 -2.879,-0.674 -2.587,-4.985 -3.044,-7.622 -1.903,-10.957 -1.37,-21.77 7.553,-29.591 10.757,-9.429 22.593,-11.561 35.937,-5.566 6.425,2.886 22.181,15.297 16.036,23.493 -10.14,-8.748 -21.597,-16.23 -35.502,-13.491 z"/><g id="g56" clip-path="url(#clipPath58)" transform="matrix(1,0,0,-1,219.2041,69.055664)"><g id="g62" transform="translate(-15.4277,-10.5527)"><path d="m 0,0 c -1.596,4.643 3.228,12.603 5.983,16.494 2.756,3.892 5.335,6.192 12.265,9.262 6.931,3.07 9.778,6.363 10.766,8.808 0.986,2.445 3.112,8.938 -3.553,17.827 0,0 8.383,1.314 10.427,-5.626 0,0 2.37,2.948 6.389,2.901 0.55,-3.282 -0.848,-6.807 -0.848,-6.807 7.211,0.601 9.012,-7.691 9.012,-7.691 C 39.745,38.173 34.458,33.846 32.535,32.043 30.612,30.24 28.569,26.395 28.209,18.823 27.849,11.252 26.285,8.127 24.002,4.041 21.719,-0.045 15.229,-7.496 10.782,-7.496 6.336,-7.496 1.596,-4.643 0,0" style="fill:#ffcc00;fill-opacity:1;fill-rule:nonzero;stroke:none" id="path64" inkscape:connector-curvature="0"/></g><g id="g66" transform="translate(-15.4277,-10.5527)"><path d="m 0,0 c -1.596,4.643 3.228,12.603 5.983,16.494 2.756,3.892 5.335,6.192 12.265,9.262 6.931,3.07 9.778,6.363 10.766,8.808 0.986,2.445 3.112,8.938 -3.553,17.827 0,0 8.383,1.314 10.427,-5.626 0,0 2.37,2.948 6.389,2.901 0.55,-3.282 -0.848,-6.807 -0.848,-6.807 7.211,0.601 9.012,-7.691 9.012,-7.691 C 39.745,38.173 34.458,33.846 32.535,32.043 30.612,30.24 28.569,26.395 28.209,18.823 27.849,11.252 26.285,8.127 24.002,4.041 21.719,-0.045 15.229,-7.496 10.782,-7.496 6.336,-7.496 1.596,-4.643 0,0 z" style="fill:none;stroke:#000000;stroke-width:1;stroke-linecap:butt;stroke-linejoin:miter;stroke-miterlimit:4;stroke-opacity:1;stroke-dasharray:none" id="path68" inkscape:connector-curvature="0"/></g><g id="g70" transform="translate(-8.1123,-22.0107)"><path d="m 0,0 c 0,3.761 -3.049,6.81 -6.81,6.81 -3.76,0 -6.809,-3.049 -6.809,-6.81 0,-3.761 3.049,-6.81 6.809,-6.81 C -3.049,-6.81 0,-3.761 0,0" style="fill:#ffcc00;fill-opacity:1;fill-rule:nonzero;stroke:none" id="path72" inkscape:connector-curvature="0"/></g><g id="g74" transform="translate(-8.1123,-22.0107)"><path d="m 0,0 c 0,3.761 -3.049,6.81 -6.81,6.81 -3.76,0 -6.809,-3.049 -6.809,-6.81 0,-3.761 3.049,-6.81 6.809,-6.81 C -3.049,-6.81 0,-3.761 0,0 z" style="fill:none;stroke:#000000;stroke-width:1;stroke-linecap:butt;stroke-linejoin:miter;stroke-miterlimit:4;stroke-opacity:1;stroke-dasharray:none" id="path76" inkscape:connector-curvature="0"/></g><g id="g78" transform="translate(-27.2041,1.3389)"><path d="M 0,0 C -5.014,-27.729 9.121,-40.195 37.942,-32.593 6.203,-60.808 -22.376,-27.242 0,0" style="fill:#ffcc00;fill-opacity:1;fill-rule:nonzero;stroke:none" id="path80" inkscape:connector-curvature="0"/></g><g id="g82" transform="translate(-27.2041,1.3389)"><path d="M 0,0 C -5.014,-27.729 9.121,-40.195 37.942,-32.593 6.203,-60.808 -22.376,-27.242 0,0 z" style="fill:none;stroke:#000000;stroke-width:1;stroke-linecap:butt;stroke-linejoin:miter;stroke-miterlimit:4;stroke-opacity:1;stroke-dasharray:none" id="path84" inkscape:connector-curvature="0"/></g></g><path inkscape:connector-curvature="0" id="path88" style="fill:#ffcc00;fill-opacity:1;fill-rule:nonzero;stroke:none" d="m 65.8564,310.4468 c 1.596,4.643 -3.228,12.603 -5.983,16.494 -2.756,3.892 -5.335,6.192 -12.265,9.262 -6.931,3.07 -9.778,6.363 -10.766,8.808 -0.986,2.445 -3.112,8.938 3.553,17.827 0,0 -8.383,1.314 -10.427,-5.626 0,0 -2.37,2.948 -6.389,2.901 -0.55,-3.282 0.848,-6.807 0.848,-6.807 -7.211,0.601 -9.012,-7.691 -9.012,-7.691 10.696,3.005 15.983,-1.322 17.906,-3.125 1.923,-1.803 3.966,-5.648 4.326,-13.22 0.36,-7.571 1.924,-10.696 4.207,-14.782 2.283,-4.086 8.773,-11.537 13.22,-11.537 4.446,0 9.186,2.853 10.782,7.496"/><path inkscape:connector-curvature="0" id="path92" style="fill:none;stroke:#000000;stroke-width:1;stroke-linecap:butt;stroke-linejoin:miter;stroke-miterlimit:4;stroke-opacity:1;stroke-dasharray:none" d="m 65.8564,310.4468 c 1.596,4.643 -3.228,12.603 -5.983,16.494 -2.756,3.892 -5.335,6.192 -12.265,9.262 -6.931,3.07 -9.778,6.363 -10.766,8.808 -0.986,2.445 -3.112,8.938 3.553,17.827 0,0 -8.383,1.314 -10.427,-5.626 0,0 -2.37,2.948 -6.389,2.901 -0.55,-3.282 0.848,-6.807 0.848,-6.807 -7.211,0.601 -9.012,-7.691 -9.012,-7.691 10.696,3.005 15.983,-1.322 17.906,-3.125 1.923,-1.803 3.966,-5.648 4.326,-13.22 0.36,-7.571 1.924,-10.696 4.207,-14.782 2.283,-4.086 8.773,-11.537 13.22,-11.537 4.446,0 9.186,2.853 10.782,7.496 z"/><path inkscape:connector-curvature="0" id="path96" style="fill:#ffcc00;fill-opacity:1;fill-rule:nonzero;stroke:none" d="m 58.541,298.9888 c 0,3.761 3.049,6.81 6.81,6.81 3.76,0 6.809,-3.049 6.809,-6.81 0,-3.761 -3.049,-6.81 -6.809,-6.81 -3.761,0 -6.81,3.049 -6.81,6.81"/><path inkscape:connector-curvature="0" id="path100" style="fill:none;stroke:#000000;stroke-width:1;stroke-linecap:butt;stroke-linejoin:miter;stroke-miterlimit:4;stroke-opacity:1;stroke-dasharray:none" d="m 58.541,298.9888 c 0,3.761 3.049,6.81 6.81,6.81 3.76,0 6.809,-3.049 6.809,-6.81 0,-3.761 -3.049,-6.81 -6.809,-6.81 -3.761,0 -6.81,3.049 -6.81,6.81 z"/><path inkscape:connector-curvature="0" id="path104" style="fill:#ffcc00;fill-opacity:1;fill-rule:nonzero;stroke:none" d="m 77.6328,322.3384 c 7.461,-25.974 -12.282,-45.253 -47.08,-19.388 24.987,-53.643 82.319,-2.742 47.08,19.388"/><path inkscape:connector-curvature="0" id="path108" style="fill:none;stroke:#000000;stroke-width:1;stroke-linecap:butt;stroke-linejoin:miter;stroke-miterlimit:4;stroke-opacity:1;stroke-dasharray:none" d="m 77.6328,322.3384 c 7.461,-25.974 -12.282,-45.253 -47.08,-19.388 24.987,-53.643 82.319,-2.742 47.08,19.388 z"/><path inkscape:connector-curvature="0" id="path112" style="fill:#ffcc00;fill-opacity:1;fill-rule:nonzero;stroke:none" d="m 252.543,381.5239 c -4.896,-5.927 -19.458,-7.603 -22.422,-7.41 -2.318,3.415 -5.412,13.079 -3.865,22.357 -5.412,-5.411 -15.979,-15.592 -23.581,-14.883 -7.603,0.709 -12.499,17.589 -12.37,21.713 0,-4.897 -15.205,-18.685 -20.36,-18.298 -5.154,0.387 -21.132,19.329 -21.132,19.329 l -0.358,0 c 0,0 -15.978,-18.942 -21.133,-19.329 -5.154,-0.387 -20.359,13.401 -20.359,18.298 0.129,-4.124 -4.768,-21.004 -12.37,-21.713 -7.603,-0.709 -18.169,9.472 -23.581,14.883 1.546,-9.278 -1.547,-18.942 -3.866,-22.357 -2.963,-0.193 -17.525,1.483 -22.421,7.41 1.159,-6.443 7.731,-14.819 7.731,-14.819 l 96.178,17.553 96.178,-17.553 c 0,0 6.571,8.376 7.731,14.819"/><path inkscape:connector-curvature="0" id="path116" style="fill:none;stroke:#000000;stroke-width:1;stroke-linecap:butt;stroke-linejoin:miter;stroke-miterlimit:4;stroke-opacity:1;stroke-dasharray:none" d="m 252.543,381.5239 c -4.896,-5.927 -19.458,-7.603 -22.422,-7.41 -2.318,3.415 -5.412,13.079 -3.865,22.357 -5.412,-5.411 -15.979,-15.592 -23.581,-14.883 -7.603,0.709 -12.499,17.589 -12.37,21.713 0,-4.897 -15.205,-18.685 -20.36,-18.298 -5.154,0.387 -21.132,19.329 -21.132,19.329 l -0.358,0 c 0,0 -15.978,-18.942 -21.133,-19.329 -5.154,-0.387 -20.359,13.401 -20.359,18.298 0.129,-4.124 -4.768,-21.004 -12.37,-21.713 -7.603,-0.709 -18.169,9.472 -23.581,14.883 1.546,-9.278 -1.547,-18.942 -3.866,-22.357 -2.963,-0.193 -17.525,1.483 -22.421,7.41 1.159,-6.443 7.731,-14.819 7.731,-14.819 l 96.178,17.553 96.178,-17.553 c 0,0 6.571,8.376 7.731,14.819 z"/><g id="g122" clip-path="url(#clipPath124)" transform="matrix(1,0,0,-1,77.567871,143.63086)"><g id="g128" transform="translate(-10.5366,20.7275)"><path d="m 0,0 c 7.163,-0.543 9.768,-4.017 10.961,-6.404 1.194,-2.388 4.342,-10.636 -4.449,-14.652 -8.791,-4.015 -18.45,5.319 -18.993,11.722 -0.543,6.403 -1.846,16.931 8.899,23.226 10.745,6.295 20.079,0.325 25.723,-3.039 5.643,-3.365 17.148,-14.761 8.899,-33.863 -8.248,-19.101 -31.149,-31.473 -35.49,-33.753 -4.342,-2.279 -5.644,-0.977 -5.644,-0.977 l -2.741,3.039 c 0,0 -0.297,1.193 1.873,4.124 2.17,2.931 15.846,11.831 18.668,15.304 2.821,3.472 13.68,14.841 13.349,23.551 -0.326,8.575 -1.411,10.527 -6.295,14 C 9.876,5.752 7.499,5.676 5.101,5.101 0.895,4.092 0,0 0,0" style="fill:#ffcc00;fill-opacity:1;fill-rule:nonzero;stroke:none" id="path130" inkscape:connector-curvature="0"/></g><g id="g132" transform="translate(-10.5366,20.7275)"><path d="m 0,0 c 7.163,-0.543 9.768,-4.017 10.961,-6.404 1.194,-2.388 4.342,-10.636 -4.449,-14.652 -8.791,-4.015 -18.45,5.319 -18.993,11.722 -0.543,6.403 -1.846,16.931 8.899,23.226 10.745,6.295 20.079,0.325 25.723,-3.039 5.643,-3.365 17.148,-14.761 8.899,-33.863 -8.248,-19.101 -31.149,-31.473 -35.49,-33.753 -4.342,-2.279 -5.644,-0.977 -5.644,-0.977 l -2.741,3.039 c 0,0 -0.297,1.193 1.873,4.124 2.17,2.931 15.846,11.831 18.668,15.304 2.821,3.472 13.68,14.841 13.349,23.551 -0.326,8.575 -1.411,10.527 -6.295,14 C 9.876,5.752 7.499,5.676 5.101,5.101 0.895,4.092 0,0 0,0 z" style="fill:none;stroke:#000000;stroke-width:1;stroke-linecap:butt;stroke-linejoin:miter;stroke-miterlimit:4;stroke-opacity:1;stroke-dasharray:none" id="path134" inkscape:connector-curvature="0"/></g></g><g id="g140" clip-path="url(#clipPath142)" transform="matrix(-1,0,0,-1,220.85742,143.57129)"><g id="g146" transform="translate(-10.5366,20.7275)"><path d="m 0,0 c 7.163,-0.543 9.768,-4.017 10.961,-6.404 1.194,-2.388 4.342,-10.636 -4.449,-14.652 -8.791,-4.015 -18.45,5.319 -18.993,11.722 -0.543,6.403 -1.846,16.931 8.899,23.226 10.745,6.295 20.079,0.325 25.723,-3.039 5.643,-3.365 17.148,-14.761 8.899,-33.863 -8.248,-19.101 -31.149,-31.473 -35.49,-33.753 -4.342,-2.279 -5.644,-0.977 -5.644,-0.977 l -2.741,3.039 c 0,0 -0.297,1.193 1.873,4.124 2.17,2.931 15.846,11.831 18.668,15.304 2.821,3.472 13.68,14.841 13.349,23.551 -0.326,8.575 -1.411,10.527 -6.295,14 C 9.876,5.752 7.499,5.676 5.101,5.101 0.895,4.092 0,0 0,0" style="fill:#ffcc00;fill-opacity:1;fill-rule:nonzero;stroke:none" id="path148" inkscape:connector-curvature="0"/></g><g id="g150" transform="translate(-10.5366,20.7275)"><path d="m 0,0 c 7.163,-0.543 9.768,-4.017 10.961,-6.404 1.194,-2.388 4.342,-10.636 -4.449,-14.652 -8.791,-4.015 -18.45,5.319 -18.993,11.722 -0.543,6.403 -1.846,16.931 8.899,23.226 10.745,6.295 20.079,0.325 25.723,-3.039 5.643,-3.365 17.148,-14.761 8.899,-33.863 -8.248,-19.101 -31.149,-31.473 -35.49,-33.753 -4.342,-2.279 -5.644,-0.977 -5.644,-0.977 l -2.741,3.039 c 0,0 -0.297,1.193 1.873,4.124 2.17,2.931 15.846,11.831 18.668,15.304 2.821,3.472 13.68,14.841 13.349,23.551 -0.326,8.575 -1.411,10.527 -6.295,14 C 9.876,5.752 7.499,5.676 5.101,5.101 0.895,4.092 0,0 0,0 z" style="fill:none;stroke:#000000;stroke-width:1;stroke-linecap:butt;stroke-linejoin:miter;stroke-miterlimit:4;stroke-opacity:1;stroke-dasharray:none" id="path152" inkscape:connector-curvature="0"/></g></g><g id="g158" clip-path="url(#clipPath160)" transform="matrix(1,0,0,-1,40.272461,218.6123)"><g id="g164" transform="translate(10.1914,-24.9766)"><path d="m 0,0 c 4.785,-2.991 2.752,-9.093 0,-11.605 -2.752,-2.513 -8.734,-4.906 -13.042,1.555 -4.307,6.461 1.316,14.955 4.068,16.989 2.752,2.035 19.024,7.418 25.485,-3.23 6.461,-10.648 9.333,-30.031 -7.896,-40.68 -17.23,-10.649 -44.27,-4.547 -55.278,20.221 -11.007,24.767 1.317,44.986 7.18,50.85 5.862,5.863 21.05,19.302 30.27,32.185 C 0.119,79.325 6.58,91.29 6.58,91.29 8.255,87.342 9.452,73.104 4.187,64.848 l 25.963,0.359 c 0,0 -10.528,-13.282 -22.374,-13.162 0,0 15.315,-2.15 15.555,-15.192 0.239,-13.042 -1.676,-16.632 -1.676,-16.632 0,0 -9.092,19.383 -24.766,15.076 0,0 5.503,-1.316 8.255,-7.657 l -14.238,2.392 c 0,0 6.222,-4.186 7.059,-8.614 0,0 -22.972,-1.197 -25.126,-15.436 -2.154,-14.237 -0.12,-24.886 10.17,-30.27 10.289,-5.384 16.392,-1.915 17.349,-1.556 0.957,0.359 6.58,3.709 8.136,8.854 1.555,5.145 0.598,9.811 -0.957,11.845 C 5.981,-3.11 4.306,0.588 0,0" style="fill:#ffcc00;fill-opacity:1;fill-rule:nonzero;stroke:none" id="path166" inkscape:connector-curvature="0"/></g><g id="g168" transform="translate(10.1914,-24.9766)"><path d="m 0,0 c 4.785,-2.991 2.752,-9.093 0,-11.605 -2.752,-2.513 -8.734,-4.906 -13.042,1.555 -4.307,6.461 1.316,14.955 4.068,16.989 2.752,2.035 19.024,7.418 25.485,-3.23 6.461,-10.648 9.333,-30.031 -7.896,-40.68 -17.23,-10.649 -44.27,-4.547 -55.278,20.221 -11.007,24.767 1.317,44.986 7.18,50.85 5.862,5.863 21.05,19.302 30.27,32.185 C 0.119,79.325 6.58,91.29 6.58,91.29 8.255,87.342 9.452,73.104 4.187,64.848 l 25.963,0.359 c 0,0 -10.528,-13.282 -22.374,-13.162 0,0 15.315,-2.15 15.555,-15.192 0.239,-13.042 -1.676,-16.632 -1.676,-16.632 0,0 -9.092,19.383 -24.766,15.076 0,0 5.503,-1.316 8.255,-7.657 l -14.238,2.392 c 0,0 6.222,-4.186 7.059,-8.614 0,0 -22.972,-1.197 -25.126,-15.436 -2.154,-14.237 -0.12,-24.886 10.17,-30.27 10.289,-5.384 16.392,-1.915 17.349,-1.556 0.957,0.359 6.58,3.709 8.136,8.854 1.555,5.145 0.598,9.811 -0.957,11.845 C 5.981,-3.11 4.306,0.588 0,0 z" style="fill:none;stroke:#000000;stroke-width:1;stroke-linecap:butt;stroke-linejoin:miter;stroke-miterlimit:4;stroke-opacity:1;stroke-dasharray:none" id="path170" inkscape:connector-curvature="0"/></g></g><g id="g176" clip-path="url(#clipPath178)" transform="matrix(-1,0,0,-1,257.6123,218.8584)"><g id="g182" transform="translate(10.1914,-24.9766)"><path d="m 0,0 c 4.785,-2.991 2.752,-9.093 0,-11.605 -2.752,-2.513 -8.734,-4.906 -13.042,1.555 -4.307,6.461 1.316,14.955 4.068,16.989 2.752,2.035 19.024,7.418 25.485,-3.23 6.461,-10.648 9.333,-30.031 -7.896,-40.68 -17.23,-10.649 -44.27,-4.547 -55.278,20.221 -11.007,24.767 1.317,44.986 7.18,50.85 5.862,5.863 21.05,19.302 30.27,32.185 C 0.119,79.325 6.58,91.29 6.58,91.29 8.255,87.342 9.452,73.104 4.187,64.848 l 25.963,0.359 c 0,0 -10.528,-13.282 -22.374,-13.162 0,0 15.315,-2.15 15.555,-15.192 0.239,-13.042 -1.676,-16.632 -1.676,-16.632 0,0 -9.092,19.383 -24.766,15.076 0,0 5.503,-1.316 8.255,-7.657 l -14.238,2.392 c 0,0 6.222,-4.186 7.059,-8.614 0,0 -22.972,-1.197 -25.126,-15.436 -2.154,-14.237 -0.12,-24.886 10.17,-30.27 10.289,-5.384 16.392,-1.915 17.349,-1.556 0.957,0.359 6.58,3.709 8.136,8.854 1.555,5.145 0.598,9.811 -0.957,11.845 C 5.981,-3.11 4.306,0.588 0,0" style="fill:#ffcc00;fill-opacity:1;fill-rule:nonzero;stroke:none" id="path184" inkscape:connector-curvature="0"/></g><g id="g186" transform="translate(10.1914,-24.9766)"><path d="m 0,0 c 4.785,-2.991 2.752,-9.093 0,-11.605 -2.752,-2.513 -8.734,-4.906 -13.042,1.555 -4.307,6.461 1.316,14.955 4.068,16.989 2.752,2.035 19.024,7.418 25.485,-3.23 6.461,-10.648 9.333,-30.031 -7.896,-40.68 -17.23,-10.649 -44.27,-4.547 -55.278,20.221 -11.007,24.767 1.317,44.986 7.18,50.85 5.862,5.863 21.05,19.302 30.27,32.185 C 0.119,79.325 6.58,91.29 6.58,91.29 8.255,87.342 9.452,73.104 4.187,64.848 l 25.963,0.359 c 0,0 -10.528,-13.282 -22.374,-13.162 0,0 15.315,-2.15 15.555,-15.192 0.239,-13.042 -1.676,-16.632 -1.676,-16.632 0,0 -9.092,19.383 -24.766,15.076 0,0 5.503,-1.316 8.255,-7.657 l -14.238,2.392 c 0,0 6.222,-4.186 7.059,-8.614 0,0 -22.972,-1.197 -25.126,-15.436 -2.154,-14.237 -0.12,-24.886 10.17,-30.27 10.289,-5.384 16.392,-1.915 17.349,-1.556 0.957,0.359 6.58,3.709 8.136,8.854 1.555,5.145 0.598,9.811 -0.957,11.845 C 5.981,-3.11 4.306,0.588 0,0 z" style="fill:none;stroke:#000000;stroke-width:1;stroke-linecap:butt;stroke-linejoin:miter;stroke-miterlimit:4;stroke-opacity:1;stroke-dasharray:none" id="path188" inkscape:connector-curvature="0"/></g></g><path inkscape:connector-curvature="0" id="path192" style="fill:#ffcc00;fill-opacity:1;fill-rule:nonzero;stroke:none" d="m 188.8125,70.499 c -0.834,1.25 -2.667,3.25 -4.084,4.667 -1.416,1.417 -2.333,1.25 -4.333,0.417 -2,-0.833 -31.25,-13.417 -31.25,-13.417 l -0.146,0 c 0,0 -29.25,12.584 -31.25,13.417 -2,0.833 -2.916,1 -4.333,-0.417 -1.417,-1.417 -3.25,-3.417 -4.083,-4.667 -0.834,-1.25 -1.167,-3.166 1.083,-3.833 2.25,-0.667 11,-3.083 15.083,-6.5 4.084,-3.417 9.084,-8.083 8,-15.25 -1.083,-7.167 -9,-17.499 -17,-18.583 14.084,-4 31.5,7.083 32.5,17.083 0.028,0.276 0.049,0.547 0.073,0.82 0.025,-0.273 0.046,-0.544 0.073,-0.82 1,-10 18.417,-21.083 32.5,-17.083 -8,1.084 -15.917,11.416 -17,18.583 -1.083,7.167 3.917,11.833 8,15.25 4.083,3.417 12.833,5.833 15.083,6.5 2.25,0.667 1.917,2.583 1.084,3.833"/><path inkscape:connector-curvature="0" id="path196" style="fill:none;stroke:#000000;stroke-width:1;stroke-linecap:butt;stroke-linejoin:miter;stroke-miterlimit:4;stroke-opacity:1;stroke-dasharray:none" d="m 188.8125,70.499 c -0.834,1.25 -2.667,3.25 -4.084,4.667 -1.416,1.417 -2.333,1.25 -4.333,0.417 -2,-0.833 -31.25,-13.417 -31.25,-13.417 l -0.146,0 c 0,0 -29.25,12.584 -31.25,13.417 -2,0.833 -2.916,1 -4.333,-0.417 -1.417,-1.417 -3.25,-3.417 -4.083,-4.667 -0.834,-1.25 -1.167,-3.166 1.083,-3.833 2.25,-0.667 11,-3.083 15.083,-6.5 4.084,-3.417 9.084,-8.083 8,-15.25 -1.083,-7.167 -9,-17.499 -17,-18.583 14.084,-4 31.5,7.083 32.5,17.083 0.028,0.276 0.049,0.547 0.073,0.82 0.025,-0.273 0.046,-0.544 0.073,-0.82 1,-10 18.417,-21.083 32.5,-17.083 -8,1.084 -15.917,11.416 -17,18.583 -1.083,7.167 3.917,11.833 8,15.25 4.083,3.417 12.833,5.833 15.083,6.5 2.25,0.667 1.917,2.583 1.084,3.833 z"/><path inkscape:connector-curvature="0" id="path200" style="fill:#ffcc00;fill-opacity:1;fill-rule:nonzero;stroke:none" d="m 190.9756,382.6841 c -8.756,1.347 -42.028,2.824 -42.523,2.804 -0.496,0.02 -33.769,-1.457 -42.524,-2.804 -10.051,-1.546 -46.002,-9.535 -54.249,-16.042 7.474,-10.76 18.04,-18.878 18.04,-18.878 0,0 -1.418,4.639 -0.902,8.247 0.515,3.608 23.195,8.375 37.884,9.535 13.249,1.046 70.253,1.046 83.502,0 14.689,-1.16 37.368,-5.927 37.883,-9.535 0.516,-3.608 -0.901,-8.247 -0.901,-8.247 0,0 10.565,8.118 18.039,18.878 -8.247,6.507 -44.197,14.496 -54.249,16.042"/><path inkscape:connector-curvature="0" id="path204" style="fill:none;stroke:#000000;stroke-width:1;stroke-linecap:butt;stroke-linejoin:miter;stroke-miterlimit:4;stroke-opacity:1;stroke-dasharray:none" d="m 190.9756,382.6841 c -8.756,1.347 -42.028,2.824 -42.523,2.804 -0.496,0.02 -33.769,-1.457 -42.524,-2.804 -10.051,-1.546 -46.002,-9.535 -54.249,-16.042 7.474,-10.76 18.04,-18.878 18.04,-18.878 0,0 -1.418,4.639 -0.902,8.247 0.515,3.608 23.195,8.375 37.884,9.535 13.249,1.046 70.253,1.046 83.502,0 14.689,-1.16 37.368,-5.927 37.883,-9.535 0.516,-3.608 -0.901,-8.247 -0.901,-8.247 0,0 10.565,8.118 18.039,18.878 -8.247,6.507 -44.197,14.496 -54.249,16.042 z"/><path inkscape:connector-curvature="0" id="path208" style="fill:#ffcc00;fill-opacity:1;fill-rule:nonzero;stroke:none" d="m 197.5293,325.3105 c 1.879,0.876 4.885,4.258 5.9,7.633 1.016,3.375 1.49,3.639 3.118,5.392 1.628,1.754 3.13,0.627 7.765,2.004 4.633,1.378 13.331,6.298 19.478,13.197 -3.883,-1.127 -11.087,-1.048 -16.472,-1.691 -5.387,-0.643 -13.652,0.393 -21.166,3.148 -7.516,2.755 -17.535,0.501 -23.422,0 -5.349,-0.455 -21.658,-6.391 -24.591,-7.471 -2.932,1.08 -19.241,7.016 -24.591,7.471 -5.887,0.501 -15.906,2.755 -23.421,0 -7.515,-2.755 -15.78,-3.791 -21.166,-3.148 -5.386,0.643 -12.293,0.878 -16.176,2.005 4.876,-7.763 14.548,-12.133 19.182,-13.511 4.634,-1.377 6.137,-0.25 7.765,-2.004 1.628,-1.753 2.102,-2.017 3.117,-5.392 1.016,-3.375 4.022,-6.757 5.901,-7.633 1.878,-0.876 2.63,-1.628 2.63,-2.379 0,-0.752 -1.127,-1.629 -2.129,-1.629 -1.002,0 -4.411,1.754 -6.402,2.756 -1.99,1.002 -9.129,5.385 -11.133,6.763 -2.003,1.378 -3.005,2.366 -4.258,2.122 -1.252,-0.243 -3.833,-0.87 -5.298,-1.872 -1.465,-1.002 -2.467,-6.387 -0.964,-8.015 1.503,-1.628 9.895,-8.266 19.538,-15.155 9.644,-6.888 7.139,-3.757 7.139,-3.757 l 100.533,0 c 0,0 -2.505,-3.131 7.139,3.757 9.643,6.889 18.035,13.527 19.538,15.155 1.503,1.628 0.501,7.013 -0.964,8.015 -1.465,1.002 -4.046,1.629 -5.299,1.872 -1.252,0.244 -2.254,-0.744 -4.258,-2.122 -2.004,-1.378 -9.142,-5.761 -11.133,-6.763 -1.99,-1.002 -5.399,-2.756 -6.401,-2.756 -1.002,0 -2.129,0.877 -2.129,1.629 0,0.751 0.751,1.503 2.63,2.379"/><path inkscape:connector-curvature="0" id="path212" style="fill:none;stroke:#000000;stroke-width:1;stroke-linecap:butt;stroke-linejoin:miter;stroke-miterlimit:4;stroke-opacity:1;stroke-dasharray:none" d="m 197.5293,325.3105 c 1.879,0.876 4.885,4.258 5.9,7.633 1.016,3.375 1.49,3.639 3.118,5.392 1.628,1.754 3.13,0.627 7.765,2.004 4.633,1.378 13.331,6.298 19.478,13.197 -3.883,-1.127 -11.087,-1.048 -16.472,-1.691 -5.387,-0.643 -13.652,0.393 -21.166,3.148 -7.516,2.755 -17.535,0.501 -23.422,0 -5.349,-0.455 -21.658,-6.391 -24.591,-7.471 -2.932,1.08 -19.241,7.016 -24.591,7.471 -5.887,0.501 -15.906,2.755 -23.421,0 -7.515,-2.755 -15.78,-3.791 -21.166,-3.148 -5.386,0.643 -12.293,0.878 -16.176,2.005 4.876,-7.763 14.548,-12.133 19.182,-13.511 4.634,-1.377 6.137,-0.25 7.765,-2.004 1.628,-1.753 2.102,-2.017 3.117,-5.392 1.016,-3.375 4.022,-6.757 5.901,-7.633 1.878,-0.876 2.63,-1.628 2.63,-2.379 0,-0.752 -1.127,-1.629 -2.129,-1.629 -1.002,0 -4.411,1.754 -6.402,2.756 -1.99,1.002 -9.129,5.385 -11.133,6.763 -2.003,1.378 -3.005,2.366 -4.258,2.122 -1.252,-0.243 -3.833,-0.87 -5.298,-1.872 -1.465,-1.002 -2.467,-6.387 -0.964,-8.015 1.503,-1.628 9.895,-8.266 19.538,-15.155 9.644,-6.888 7.139,-3.757 7.139,-3.757 l 100.533,0 c 0,0 -2.505,-3.131 7.139,3.757 9.643,6.889 18.035,13.527 19.538,15.155 1.503,1.628 0.501,7.013 -0.964,8.015 -1.465,1.002 -4.046,1.629 -5.299,1.872 -1.252,0.244 -2.254,-0.744 -4.258,-2.122 -2.004,-1.378 -9.142,-5.761 -11.133,-6.763 -1.99,-1.002 -5.399,-2.756 -6.401,-2.756 -1.002,0 -2.129,0.877 -2.129,1.629 0,0.751 0.751,1.503 2.63,2.379 z"/><g id="g218" clip-path="url(#clipPath220)" transform="matrix(-1,0,0,-1,263.39062,407.31934)"><g id="g224" transform="translate(14.6045,-21.4497)"><path d="m 0,0 c -4.809,-6.679 -13.552,-0.214 -18.212,3.196 -1.824,1.336 -4.145,2.77 -5.608,4.492 -2.927,3.441 -5.721,7.525 -5.978,12.172 -0.252,4.562 1.81,8.615 4.303,12.287 2.499,3.681 5.012,7.867 8.426,10.765 2.376,2.017 6.485,4.867 8.591,0.906 1.288,-1.43 1.727,-3.673 0.05,-5.489 C -12.782,33.61 -19.792,24.342 -16.834,17.398 -14.045,10.85 -6.264,10.058 -1.499,5.592 0,4.186 1.474,2.048 0,0" style="fill:#ffcc00;fill-opacity:1;fill-rule:nonzero;stroke:none" id="path226" inkscape:connector-curvature="0"/></g><g id="g228" transform="translate(14.6045,-21.4497)"><path d="m 0,0 c -4.809,-6.679 -13.552,-0.214 -18.212,3.196 -1.824,1.336 -4.145,2.77 -5.608,4.492 -2.927,3.441 -5.721,7.525 -5.978,12.172 -0.252,4.562 1.81,8.615 4.303,12.287 2.499,3.681 5.012,7.867 8.426,10.765 2.376,2.017 6.485,4.867 8.591,0.906 1.288,-1.43 1.727,-3.673 0.05,-5.489 C -12.782,33.61 -19.792,24.342 -16.834,17.398 -14.045,10.85 -6.264,10.058 -1.499,5.592 0,4.186 1.474,2.048 0,0 z" style="fill:none;stroke:#000000;stroke-width:1;stroke-linecap:butt;stroke-linejoin:miter;stroke-miterlimit:4;stroke-opacity:1;stroke-dasharray:none" id="path230" inkscape:connector-curvature="0"/></g></g><g id="g236" clip-path="url(#clipPath238)" transform="matrix(-1,0,0,-1,172.36816,431.17334)"><g id="g242" transform="translate(12.041,-11.0381)"><path d="m 0,0 c -2.708,-1.926 -6.764,-0.924 -8.224,1.937 -2.454,4.81 6.9,8.665 2.747,12.233 -0.797,0.686 -1.945,0.915 -2.951,1.088 -4.242,0.727 -8.547,-0.514 -12.06,-2.94 -1.734,-1.197 -2.032,-3.897 -3.852,-4.855 -1.546,-0.815 -3.431,0.519 -3.514,2.189 -0.698,13.986 21.94,18.002 28.947,7.428 C 4.374,12.128 5.363,3.815 0,0" style="fill:#feda02;fill-opacity:1;fill-rule:nonzero;stroke:none" id="path244" inkscape:connector-curvature="0"/></g><g id="g246" transform="translate(12.041,-11.0381)"><path d="m 0,0 c -2.708,-1.926 -6.764,-0.924 -8.224,1.937 -2.454,4.81 6.9,8.665 2.747,12.233 -0.797,0.686 -1.945,0.915 -2.951,1.088 -4.242,0.727 -8.547,-0.514 -12.06,-2.94 -1.734,-1.197 -2.032,-3.897 -3.852,-4.855 -1.546,-0.815 -3.431,0.519 -3.514,2.189 -0.698,13.986 21.94,18.002 28.947,7.428 C 4.374,12.128 5.363,3.815 0,0 z" style="fill:none;stroke:#000000;stroke-width:1;stroke-linecap:butt;stroke-linejoin:miter;stroke-miterlimit:4;stroke-opacity:1;stroke-dasharray:none" id="path248" inkscape:connector-curvature="0"/></g></g><g id="g254" clip-path="url(#clipPath256)" transform="matrix(-1,0,0,-1,216.80859,421.53076)"><g id="g260" transform="translate(26.7144,-21.6714)"><path d="m 0,0 c -0.612,0.549 -1.202,1.143 -1.772,1.674 -2.691,2.507 -6.296,3.913 -9.925,4.299 -5.615,0.596 -10.273,-3.598 -15.081,-5.825 -8.399,-3.887 -18.864,-1.669 -26.363,3.365 -7.899,5.303 -8.305,15.562 -6.948,24.079 0.789,4.953 3.636,9.308 7.48,12.448 2.529,2.065 8.04,7.066 11.589,4.494 3.166,-2.295 0.165,-5.919 -1.457,-8.12 -4.077,-5.538 -9.579,-15.706 -3.311,-21.853 7.671,-7.521 19.312,-1.426 28.096,-0.082 C -9.191,15.781 0.605,11.66 6.037,5.033 7.222,3.587 7.931,0.865 6.329,-0.679 3.969,-2.953 1.88,-1.688 0,0" style="fill:#feda02;fill-opacity:1;fill-rule:nonzero;stroke:none" id="path262" inkscape:connector-curvature="0"/></g><g id="g264" transform="translate(26.7144,-21.6714)"><path d="m 0,0 c -0.612,0.549 -1.202,1.143 -1.772,1.674 -2.691,2.507 -6.296,3.913 -9.925,4.299 -5.615,0.596 -10.273,-3.598 -15.081,-5.825 -8.399,-3.887 -18.864,-1.669 -26.363,3.365 -7.899,5.303 -8.305,15.562 -6.948,24.079 0.789,4.953 3.636,9.308 7.48,12.448 2.529,2.065 8.04,7.066 11.589,4.494 3.166,-2.295 0.165,-5.919 -1.457,-8.12 -4.077,-5.538 -9.579,-15.706 -3.311,-21.853 7.671,-7.521 19.312,-1.426 28.096,-0.082 C -9.191,15.781 0.605,11.66 6.037,5.033 7.222,3.587 7.931,0.865 6.329,-0.679 3.969,-2.953 1.88,-1.688 0,0 z" style="fill:none;stroke:#000000;stroke-width:1;stroke-linecap:butt;stroke-linejoin:miter;stroke-miterlimit:4;stroke-opacity:1;stroke-dasharray:none" id="path266" inkscape:connector-curvature="0"/></g></g><path inkscape:connector-curvature="0" id="path270" style="fill:#feda02;fill-opacity:1;fill-rule:nonzero;stroke:none" d="m 162.7715,466.8901 0,8.803 -9.491,0 0,9.559 -10.006,0 0,-9.559 -9.49,0 0,-8.803 9.49,0 0,-9.068 c -4.433,-1.932 -7.535,-6.349 -7.535,-11.494 0,-6.925 5.614,-12.538 12.538,-12.538 6.926,0 12.539,5.613 12.539,12.538 0,5.145 -3.103,9.562 -7.536,11.494 l 0,9.068 9.491,0 z"/><path inkscape:connector-curvature="0" id="path274" style="fill:none;stroke:#000000;stroke-width:1;stroke-linecap:butt;stroke-linejoin:miter;stroke-miterlimit:4;stroke-opacity:1;stroke-dasharray:none" d="m 162.7715,466.8901 0,8.803 -9.491,0 0,9.559 -10.006,0 0,-9.559 -9.49,0 0,-8.803 9.49,0 0,-9.068 c -4.433,-1.932 -7.535,-6.349 -7.535,-11.494 0,-6.925 5.614,-12.538 12.538,-12.538 6.926,0 12.539,5.613 12.539,12.538 0,5.145 -3.103,9.562 -7.536,11.494 l 0,9.068 9.491,0 z"/><g id="g280" clip-path="url(#clipPath282)" transform="matrix(1,0,0,-1,190.75,338.625)"><g id="g286" transform="translate(4.0747,6.1411)"><path d="m 0,0 c -1.242,-0.209 -2.487,-0.851 -3.418,-1.702 -0.765,-0.698 -1.27,-1.72 -1.329,-2.755 -0.065,-1.099 0.315,-2.198 0.061,-3.291 -0.386,-1.663 -1.864,-3.441 -3.376,-4.222 -2.083,-1.076 -5.072,0.122 -7.032,1 -1.383,0.62 -2.543,1.52 -3.821,2.292 -0.14,0.826 -0.23,1.67 -0.23,2.537 0,8.323 6.748,15.07 15.07,15.07 6.751,0 12.464,-4.44 14.382,-10.559 C 10.292,-1.622 8.62,-0.623 3.086,0.015 2.081,0.131 1.001,0.168 0,0" style="fill:#ffcc00;fill-opacity:1;fill-rule:nonzero;stroke:none" id="path288" inkscape:connector-curvature="0"/></g><g id="g290" transform="translate(4.0747,6.1411)"><path d="m 0,0 c -1.242,-0.209 -2.487,-0.851 -3.418,-1.702 -0.765,-0.698 -1.27,-1.72 -1.329,-2.755 -0.065,-1.099 0.315,-2.198 0.061,-3.291 -0.386,-1.663 -1.864,-3.441 -3.376,-4.222 -2.083,-1.076 -5.072,0.122 -7.032,1 -1.383,0.62 -2.543,1.52 -3.821,2.292 -0.14,0.826 -0.23,1.67 -0.23,2.537 0,8.323 6.748,15.07 15.07,15.07 6.751,0 12.464,-4.44 14.382,-10.559 C 10.292,-1.622 8.62,-0.623 3.086,0.015 2.081,0.131 1.001,0.168 0,0 z" style="fill:none;stroke:#000000;stroke-width:1;stroke-linecap:butt;stroke-linejoin:miter;stroke-miterlimit:4;stroke-opacity:1;stroke-dasharray:none" id="path292" inkscape:connector-curvature="0"/></g><g id="g294" transform="translate(0,-15.0698)"><path d="m 0,0 c -7.456,0 -13.631,5.421 -14.84,12.533 1.277,-0.772 2.438,-1.672 3.821,-2.292 1.96,-0.878 4.949,-2.076 7.032,-1 1.512,0.781 2.989,2.559 3.376,4.222 0.254,1.093 -0.126,2.192 -0.061,3.291 0.059,1.035 0.564,2.057 1.329,2.755 0.93,0.851 2.176,1.493 3.418,1.702 1.001,0.168 2.081,0.131 3.086,0.015 5.533,-0.638 7.206,-1.637 7.22,-1.645 C 14.828,18.156 15.07,16.642 15.07,15.07 15.07,6.747 8.323,0 0,0" style="fill:#000099;fill-opacity:1;fill-rule:nonzero;stroke:none" id="path296" inkscape:connector-curvature="0"/></g><g id="g298" transform="translate(0,-15.0698)"><path d="m 0,0 c -7.456,0 -13.631,5.421 -14.84,12.533 1.277,-0.772 2.438,-1.672 3.821,-2.292 1.96,-0.878 4.949,-2.076 7.032,-1 1.512,0.781 2.989,2.559 3.376,4.222 0.254,1.093 -0.126,2.192 -0.061,3.291 0.059,1.035 0.564,2.057 1.329,2.755 0.93,0.851 2.176,1.493 3.418,1.702 1.001,0.168 2.081,0.131 3.086,0.015 5.533,-0.638 7.206,-1.637 7.22,-1.645 C 14.828,18.156 15.07,16.642 15.07,15.07 15.07,6.747 8.323,0 0,0 z" style="fill:none;stroke:#000000;stroke-width:1;stroke-linecap:butt;stroke-linejoin:miter;stroke-miterlimit:4;stroke-opacity:1;stroke-dasharray:none" id="path300" inkscape:connector-curvature="0"/></g></g><g id="g306" clip-path="url(#clipPath308)" transform="matrix(-1,0,0,-1,107.125,337.75)"><g id="g312" transform="translate(4.0747,6.1411)"><path d="m 0,0 c -1.242,-0.209 -2.487,-0.851 -3.418,-1.702 -0.765,-0.698 -1.27,-1.72 -1.329,-2.755 -0.065,-1.099 0.315,-2.198 0.061,-3.291 -0.386,-1.663 -1.864,-3.441 -3.376,-4.222 -2.083,-1.076 -5.072,0.122 -7.032,1 -1.383,0.62 -2.543,1.52 -3.821,2.292 -0.14,0.826 -0.23,1.67 -0.23,2.537 0,8.323 6.748,15.07 15.07,15.07 6.751,0 12.464,-4.44 14.382,-10.559 C 10.292,-1.622 8.62,-0.623 3.086,0.015 2.081,0.131 1.001,0.168 0,0" style="fill:#ffcc00;fill-opacity:1;fill-rule:nonzero;stroke:none" id="path314" inkscape:connector-curvature="0"/></g><g id="g316" transform="translate(4.0747,6.1411)"><path d="m 0,0 c -1.242,-0.209 -2.487,-0.851 -3.418,-1.702 -0.765,-0.698 -1.27,-1.72 -1.329,-2.755 -0.065,-1.099 0.315,-2.198 0.061,-3.291 -0.386,-1.663 -1.864,-3.441 -3.376,-4.222 -2.083,-1.076 -5.072,0.122 -7.032,1 -1.383,0.62 -2.543,1.52 -3.821,2.292 -0.14,0.826 -0.23,1.67 -0.23,2.537 0,8.323 6.748,15.07 15.07,15.07 6.751,0 12.464,-4.44 14.382,-10.559 C 10.292,-1.622 8.62,-0.623 3.086,0.015 2.081,0.131 1.001,0.168 0,0 z" style="fill:none;stroke:#000000;stroke-width:1;stroke-linecap:butt;stroke-linejoin:miter;stroke-miterlimit:4;stroke-opacity:1;stroke-dasharray:none" id="path318" inkscape:connector-curvature="0"/></g><g id="g320" transform="translate(0,-15.0698)"><path d="m 0,0 c -7.456,0 -13.631,5.421 -14.84,12.533 1.277,-0.772 2.438,-1.672 3.821,-2.292 1.96,-0.878 4.949,-2.076 7.032,-1 1.512,0.781 2.989,2.559 3.376,4.222 0.254,1.093 -0.126,2.192 -0.061,3.291 0.059,1.035 0.564,2.057 1.329,2.755 0.93,0.851 2.176,1.493 3.418,1.702 1.001,0.168 2.081,0.131 3.086,0.015 5.533,-0.638 7.206,-1.637 7.22,-1.645 C 14.828,18.156 15.07,16.642 15.07,15.07 15.07,6.747 8.323,0 0,0" style="fill:#000099;fill-opacity:1;fill-rule:nonzero;stroke:none" id="path322" inkscape:connector-curvature="0"/></g><g id="g324" transform="translate(0,-15.0698)"><path d="m 0,0 c -7.456,0 -13.631,5.421 -14.84,12.533 1.277,-0.772 2.438,-1.672 3.821,-2.292 1.96,-0.878 4.949,-2.076 7.032,-1 1.512,0.781 2.989,2.559 3.376,4.222 0.254,1.093 -0.126,2.192 -0.061,3.291 0.059,1.035 0.564,2.057 1.329,2.755 0.93,0.851 2.176,1.493 3.418,1.702 1.001,0.168 2.081,0.131 3.086,0.015 5.533,-0.638 7.206,-1.637 7.22,-1.645 C 14.828,18.156 15.07,16.642 15.07,15.07 15.07,6.747 8.323,0 0,0 z" style="fill:none;stroke:#000000;stroke-width:1;stroke-linecap:butt;stroke-linejoin:miter;stroke-miterlimit:4;stroke-opacity:1;stroke-dasharray:none" id="path326" inkscape:connector-curvature="0"/></g></g><g id="g332" clip-path="url(#clipPath334)" transform="matrix(0.7258301,0.5762939,-0.5762939,0.7258301,181.03711,41.647461)"><g id="g338" transform="translate(4.0747,6.1411)"><path d="m 0,0 c -1.242,-0.209 -2.487,-0.851 -3.418,-1.702 -0.765,-0.698 -1.27,-1.72 -1.329,-2.755 -0.065,-1.099 0.315,-2.198 0.061,-3.291 -0.386,-1.663 -1.864,-3.441 -3.376,-4.222 -2.083,-1.076 -5.072,0.122 -7.032,1 -1.383,0.62 -2.543,1.52 -3.821,2.292 -0.14,0.826 -0.23,1.67 -0.23,2.537 0,8.323 6.748,15.07 15.07,15.07 6.751,0 12.464,-4.44 14.382,-10.559 C 10.292,-1.622 8.62,-0.623 3.086,0.015 2.081,0.131 1.001,0.168 0,0" style="fill:#ffcc00;fill-opacity:1;fill-rule:nonzero;stroke:none" id="path340" inkscape:connector-curvature="0"/></g><g id="g342" transform="translate(4.0747,6.1411)"><path d="m 0,0 c -1.242,-0.209 -2.487,-0.851 -3.418,-1.702 -0.765,-0.698 -1.27,-1.72 -1.329,-2.755 -0.065,-1.099 0.315,-2.198 0.061,-3.291 -0.386,-1.663 -1.864,-3.441 -3.376,-4.222 -2.083,-1.076 -5.072,0.122 -7.032,1 -1.383,0.62 -2.543,1.52 -3.821,2.292 -0.14,0.826 -0.23,1.67 -0.23,2.537 0,8.323 6.748,15.07 15.07,15.07 6.751,0 12.464,-4.44 14.382,-10.559 C 10.292,-1.622 8.62,-0.623 3.086,0.015 2.081,0.131 1.001,0.168 0,0 z" style="fill:none;stroke:#000000;stroke-width:1;stroke-linecap:butt;stroke-linejoin:miter;stroke-miterlimit:4;stroke-opacity:1;stroke-dasharray:none" id="path344" inkscape:connector-curvature="0"/></g><g id="g346" transform="translate(0,-15.0698)"><path d="m 0,0 c -7.456,0 -13.631,5.421 -14.84,12.533 1.277,-0.772 2.438,-1.672 3.821,-2.292 1.96,-0.878 4.949,-2.076 7.032,-1 1.512,0.781 2.989,2.559 3.376,4.222 0.254,1.093 -0.126,2.192 -0.061,3.291 0.059,1.035 0.564,2.057 1.329,2.755 0.93,0.851 2.176,1.493 3.418,1.702 1.001,0.168 2.081,0.131 3.086,0.015 5.533,-0.638 7.206,-1.637 7.22,-1.645 C 14.828,18.156 15.07,16.642 15.07,15.07 15.07,6.747 8.323,0 0,0" style="fill:#000099;fill-opacity:1;fill-rule:nonzero;stroke:none" id="path348" inkscape:connector-curvature="0"/></g><g id="g350" transform="translate(0,-15.0698)"><path d="m 0,0 c -7.456,0 -13.631,5.421 -14.84,12.533 1.277,-0.772 2.438,-1.672 3.821,-2.292 1.96,-0.878 4.949,-2.076 7.032,-1 1.512,0.781 2.989,2.559 3.376,4.222 0.254,1.093 -0.126,2.192 -0.061,3.291 0.059,1.035 0.564,2.057 1.329,2.755 0.93,0.851 2.176,1.493 3.418,1.702 1.001,0.168 2.081,0.131 3.086,0.015 5.533,-0.638 7.206,-1.637 7.22,-1.645 C 14.828,18.156 15.07,16.642 15.07,15.07 15.07,6.747 8.323,0 0,0 z" style="fill:none;stroke:#000000;stroke-width:1;stroke-linecap:butt;stroke-linejoin:miter;stroke-miterlimit:4;stroke-opacity:1;stroke-dasharray:none" id="path352" inkscape:connector-curvature="0"/></g></g><g id="g358" clip-path="url(#clipPath360)" transform="matrix(-0.6732025,0.6552429,0.6552429,0.6732025,116.49072,41.506836)"><g id="g364" transform="translate(4.0747,6.1411)"><path d="m 0,0 c -1.242,-0.209 -2.487,-0.851 -3.418,-1.702 -0.765,-0.698 -1.27,-1.72 -1.329,-2.755 -0.065,-1.099 0.315,-2.198 0.061,-3.291 -0.386,-1.663 -1.864,-3.441 -3.376,-4.222 -2.083,-1.076 -5.072,0.122 -7.032,1 -1.383,0.62 -2.543,1.52 -3.821,2.292 -0.14,0.826 -0.23,1.67 -0.23,2.537 0,8.323 6.748,15.07 15.07,15.07 6.751,0 12.464,-4.44 14.382,-10.559 C 10.292,-1.622 8.62,-0.623 3.086,0.015 2.081,0.131 1.001,0.168 0,0" style="fill:#ffcc00;fill-opacity:1;fill-rule:nonzero;stroke:none" id="path366" inkscape:connector-curvature="0"/></g><g id="g368" transform="translate(4.0747,6.1411)"><path d="m 0,0 c -1.242,-0.209 -2.487,-0.851 -3.418,-1.702 -0.765,-0.698 -1.27,-1.72 -1.329,-2.755 -0.065,-1.099 0.315,-2.198 0.061,-3.291 -0.386,-1.663 -1.864,-3.441 -3.376,-4.222 -2.083,-1.076 -5.072,0.122 -7.032,1 -1.383,0.62 -2.543,1.52 -3.821,2.292 -0.14,0.826 -0.23,1.67 -0.23,2.537 0,8.323 6.748,15.07 15.07,15.07 6.751,0 12.464,-4.44 14.382,-10.559 C 10.292,-1.622 8.62,-0.623 3.086,0.015 2.081,0.131 1.001,0.168 0,0 z" style="fill:none;stroke:#000000;stroke-width:1;stroke-linecap:butt;stroke-linejoin:miter;stroke-miterlimit:4;stroke-opacity:1;stroke-dasharray:none" id="path370" inkscape:connector-curvature="0"/></g><g id="g372" transform="translate(0,-15.0698)"><path d="m 0,0 c -7.456,0 -13.631,5.421 -14.84,12.533 1.277,-0.772 2.438,-1.672 3.821,-2.292 1.96,-0.878 4.949,-2.076 7.032,-1 1.512,0.781 2.989,2.559 3.376,4.222 0.254,1.093 -0.126,2.192 -0.061,3.291 0.059,1.035 0.564,2.057 1.329,2.755 0.93,0.851 2.176,1.493 3.418,1.702 1.001,0.168 2.081,0.131 3.086,0.015 5.533,-0.638 7.206,-1.637 7.22,-1.645 C 14.828,18.156 15.07,16.642 15.07,15.07 15.07,6.747 8.323,0 0,0" style="fill:#000099;fill-opacity:1;fill-rule:nonzero;stroke:none" id="path374" inkscape:connector-curvature="0"/></g><g id="g376" transform="translate(0,-15.0698)"><path d="m 0,0 c -7.456,0 -13.631,5.421 -14.84,12.533 1.277,-0.772 2.438,-1.672 3.821,-2.292 1.96,-0.878 4.949,-2.076 7.032,-1 1.512,0.781 2.989,2.559 3.376,4.222 0.254,1.093 -0.126,2.192 -0.061,3.291 0.059,1.035 0.564,2.057 1.329,2.755 0.93,0.851 2.176,1.493 3.418,1.702 1.001,0.168 2.081,0.131 3.086,0.015 5.533,-0.638 7.206,-1.637 7.22,-1.645 C 14.828,18.156 15.07,16.642 15.07,15.07 15.07,6.747 8.323,0 0,0 z" style="fill:none;stroke:#000000;stroke-width:1;stroke-linecap:butt;stroke-linejoin:miter;stroke-miterlimit:4;stroke-opacity:1;stroke-dasharray:none" id="path378" inkscape:connector-curvature="0"/></g></g><g id="g384" clip-path="url(#clipPath386)" transform="matrix(1,0,0,-1,184.07812,373.89697)"><g id="g390" transform="translate(5.6646,0)"><path d="m 0,0 c 0,3.128 -2.536,5.665 -5.665,5.665 -3.128,0 -5.664,-2.537 -5.664,-5.665 0,-3.128 2.536,-5.665 5.664,-5.665 C -2.536,-5.665 0,-3.128 0,0" style="fill:#000099;fill-opacity:1;fill-rule:nonzero;stroke:none" id="path392" inkscape:connector-curvature="0"/></g><g id="g394" transform="translate(5.6646,0)"><path d="m 0,0 c 0,3.128 -2.536,5.665 -5.665,5.665 -3.128,0 -5.664,-2.537 -5.664,-5.665 0,-3.128 2.536,-5.665 5.664,-5.665 C -2.536,-5.665 0,-3.128 0,0 z" style="fill:none;stroke:#000000;stroke-width:1;stroke-linecap:butt;stroke-linejoin:miter;stroke-miterlimit:4;stroke-opacity:1;stroke-dasharray:none" id="path396" inkscape:connector-curvature="0"/></g></g><g id="g402" clip-path="url(#clipPath404)" transform="matrix(1,0,0,-1,112.5166,373.61475)"><g id="g408" transform="translate(5.6646,0)"><path d="m 0,0 c 0,3.128 -2.536,5.665 -5.665,5.665 -3.128,0 -5.664,-2.537 -5.664,-5.665 0,-3.128 2.536,-5.665 5.664,-5.665 C -2.536,-5.665 0,-3.128 0,0" style="fill:#000099;fill-opacity:1;fill-rule:nonzero;stroke:none" id="path410" inkscape:connector-curvature="0"/></g><g id="g412" transform="translate(5.6646,0)"><path d="m 0,0 c 0,3.128 -2.536,5.665 -5.665,5.665 -3.128,0 -5.664,-2.537 -5.664,-5.665 0,-3.128 2.536,-5.665 5.664,-5.665 C -2.536,-5.665 0,-3.128 0,0 z" style="fill:none;stroke:#000000;stroke-width:1;stroke-linecap:butt;stroke-linejoin:miter;stroke-miterlimit:4;stroke-opacity:1;stroke-dasharray:none" id="path414" inkscape:connector-curvature="0"/></g></g><g id="g420" clip-path="url(#clipPath422)" transform="matrix(1,0,0,-1,148.54199,418.92187)"><g id="g426" transform="translate(5.0034,0)"><path d="m 0,0 c 0,2.763 -2.24,5.003 -5.003,5.003 -2.764,0 -5.004,-2.24 -5.004,-5.003 0,-2.763 2.24,-5.003 5.004,-5.003 C -2.24,-5.003 0,-2.763 0,0" style="fill:#ffffff;fill-opacity:1;fill-rule:nonzero;stroke:none" id="path428" inkscape:connector-curvature="0"/></g><g id="g430" transform="translate(5.0034,0)"><path d="m 0,0 c 0,2.763 -2.24,5.003 -5.003,5.003 -2.764,0 -5.004,-2.24 -5.004,-5.003 0,-2.763 2.24,-5.003 5.004,-5.003 C -2.24,-5.003 0,-2.763 0,0 z" style="fill:none;stroke:#000000;stroke-width:1;stroke-linecap:butt;stroke-linejoin:miter;stroke-miterlimit:4;stroke-opacity:1;stroke-dasharray:none" id="path432" inkscape:connector-curvature="0"/></g></g><g id="g438" clip-path="url(#clipPath440)" transform="matrix(1,0,0,-1,154.83496,409.01123)"><g id="g444" transform="translate(5.0034,0)"><path d="m 0,0 c 0,2.763 -2.24,5.003 -5.003,5.003 -2.764,0 -5.004,-2.24 -5.004,-5.003 0,-2.763 2.24,-5.003 5.004,-5.003 C -2.24,-5.003 0,-2.763 0,0" style="fill:#ffffff;fill-opacity:1;fill-rule:nonzero;stroke:none" id="path446" inkscape:connector-curvature="0"/></g><g id="g448" transform="translate(5.0034,0)"><path d="m 0,0 c 0,2.763 -2.24,5.003 -5.003,5.003 -2.764,0 -5.004,-2.24 -5.004,-5.003 0,-2.763 2.24,-5.003 5.004,-5.003 C -2.24,-5.003 0,-2.763 0,0 z" style="fill:none;stroke:#000000;stroke-width:1;stroke-linecap:butt;stroke-linejoin:miter;stroke-miterlimit:4;stroke-opacity:1;stroke-dasharray:none" id="path450" inkscape:connector-curvature="0"/></g></g><g id="g456" clip-path="url(#clipPath458)" transform="matrix(1,0,0,-1,142.72168,409.01123)"><g id="g462" transform="translate(5.0034,0)"><path d="m 0,0 c 0,2.763 -2.24,5.003 -5.003,5.003 -2.764,0 -5.004,-2.24 -5.004,-5.003 0,-2.763 2.24,-5.003 5.004,-5.003 C -2.24,-5.003 0,-2.763 0,0" style="fill:#ffffff;fill-opacity:1;fill-rule:nonzero;stroke:none" id="path464" inkscape:connector-curvature="0"/></g><g id="g466" transform="translate(5.0034,0)"><path d="m 0,0 c 0,2.763 -2.24,5.003 -5.003,5.003 -2.764,0 -5.004,-2.24 -5.004,-5.003 0,-2.763 2.24,-5.003 5.004,-5.003 C -2.24,-5.003 0,-2.763 0,0 z" style="fill:none;stroke:#000000;stroke-width:1;stroke-linecap:butt;stroke-linejoin:miter;stroke-miterlimit:4;stroke-opacity:1;stroke-dasharray:none" id="path468" inkscape:connector-curvature="0"/></g></g><g id="g474" clip-path="url(#clipPath476)" transform="matrix(1,0,0,-1,190.60156,406.96582)"><g id="g480" transform="translate(5.0034,0)"><path d="m 0,0 c 0,2.763 -2.24,5.003 -5.003,5.003 -2.764,0 -5.004,-2.24 -5.004,-5.003 0,-2.763 2.24,-5.003 5.004,-5.003 C -2.24,-5.003 0,-2.763 0,0" style="fill:#ffffff;fill-opacity:1;fill-rule:nonzero;stroke:none" id="path482" inkscape:connector-curvature="0"/></g><g id="g484" transform="translate(5.0034,0)"><path d="m 0,0 c 0,2.763 -2.24,5.003 -5.003,5.003 -2.764,0 -5.004,-2.24 -5.004,-5.003 0,-2.763 2.24,-5.003 5.004,-5.003 C -2.24,-5.003 0,-2.763 0,0 z" style="fill:none;stroke:#000000;stroke-width:1;stroke-linecap:butt;stroke-linejoin:miter;stroke-miterlimit:4;stroke-opacity:1;stroke-dasharray:none" id="path486" inkscape:connector-curvature="0"/></g></g><g id="g492" clip-path="url(#clipPath494)" transform="matrix(1,0,0,-1,106.6958,407.12354)"><g id="g498" transform="translate(5.0034,0)"><path d="m 0,0 c 0,2.763 -2.24,5.003 -5.003,5.003 -2.764,0 -5.004,-2.24 -5.004,-5.003 0,-2.763 2.24,-5.003 5.004,-5.003 C -2.24,-5.003 0,-2.763 0,0" style="fill:#ffffff;fill-opacity:1;fill-rule:nonzero;stroke:none" id="path500" inkscape:connector-curvature="0"/></g><g id="g502" transform="translate(5.0034,0)"><path d="m 0,0 c 0,2.763 -2.24,5.003 -5.003,5.003 -2.764,0 -5.004,-2.24 -5.004,-5.003 0,-2.763 2.24,-5.003 5.004,-5.003 C -2.24,-5.003 0,-2.763 0,0 z" style="fill:none;stroke:#000000;stroke-width:1;stroke-linecap:butt;stroke-linejoin:miter;stroke-miterlimit:4;stroke-opacity:1;stroke-dasharray:none" id="path504" inkscape:connector-curvature="0"/></g></g><g id="g510" clip-path="url(#clipPath512)" transform="matrix(1,0,0,-1,71.613281,398.4707)"><g id="g516" transform="translate(5.0034,0)"><path d="m 0,0 c 0,2.763 -2.24,5.003 -5.003,5.003 -2.764,0 -5.004,-2.24 -5.004,-5.003 0,-2.763 2.24,-5.003 5.004,-5.003 C -2.24,-5.003 0,-2.763 0,0" style="fill:#ffffff;fill-opacity:1;fill-rule:nonzero;stroke:none" id="path518" inkscape:connector-curvature="0"/></g><g id="g520" transform="translate(5.0034,0)"><path d="m 0,0 c 0,2.763 -2.24,5.003 -5.003,5.003 -2.764,0 -5.004,-2.24 -5.004,-5.003 0,-2.763 2.24,-5.003 5.004,-5.003 C -2.24,-5.003 0,-2.763 0,0 z" style="fill:none;stroke:#000000;stroke-width:1;stroke-linecap:butt;stroke-linejoin:miter;stroke-miterlimit:4;stroke-opacity:1;stroke-dasharray:none" id="path522" inkscape:connector-curvature="0"/></g></g><g id="g528" clip-path="url(#clipPath530)" transform="matrix(1,0,0,-1,45.970703,383.21094)"><g id="g534" transform="translate(5.0034,0)"><path d="m 0,0 c 0,2.763 -2.24,5.003 -5.003,5.003 -2.764,0 -5.004,-2.24 -5.004,-5.003 0,-2.763 2.24,-5.003 5.004,-5.003 C -2.24,-5.003 0,-2.763 0,0" style="fill:#ffffff;fill-opacity:1;fill-rule:nonzero;stroke:none" id="path536" inkscape:connector-curvature="0"/></g><g id="g538" transform="translate(5.0034,0)"><path d="m 0,0 c 0,2.763 -2.24,5.003 -5.003,5.003 -2.764,0 -5.004,-2.24 -5.004,-5.003 0,-2.763 2.24,-5.003 5.004,-5.003 C -2.24,-5.003 0,-2.763 0,0 z" style="fill:none;stroke:#000000;stroke-width:1;stroke-linecap:butt;stroke-linejoin:miter;stroke-miterlimit:4;stroke-opacity:1;stroke-dasharray:none" id="path540" inkscape:connector-curvature="0"/></g></g><g id="g546" clip-path="url(#clipPath548)" transform="matrix(1,0,0,-1,226.37012,398.4707)"><g id="g552" transform="translate(5.0034,0)"><path d="m 0,0 c 0,2.763 -2.24,5.003 -5.003,5.003 -2.764,0 -5.004,-2.24 -5.004,-5.003 0,-2.763 2.24,-5.003 5.004,-5.003 C -2.24,-5.003 0,-2.763 0,0" style="fill:#ffffff;fill-opacity:1;fill-rule:nonzero;stroke:none" id="path554" inkscape:connector-curvature="0"/></g><g id="g556" transform="translate(5.0034,0)"><path d="m 0,0 c 0,2.763 -2.24,5.003 -5.003,5.003 -2.764,0 -5.004,-2.24 -5.004,-5.003 0,-2.763 2.24,-5.003 5.004,-5.003 C -2.24,-5.003 0,-2.763 0,0 z" style="fill:none;stroke:#000000;stroke-width:1;stroke-linecap:butt;stroke-linejoin:miter;stroke-miterlimit:4;stroke-opacity:1;stroke-dasharray:none" id="path558" inkscape:connector-curvature="0"/></g></g><g id="g564" clip-path="url(#clipPath566)" transform="matrix(1,0,0,-1,252.0127,383.68311)"><g id="g570" transform="translate(5.0034,0)"><path d="m 0,0 c 0,2.763 -2.24,5.003 -5.003,5.003 -2.764,0 -5.004,-2.24 -5.004,-5.003 0,-2.763 2.24,-5.003 5.004,-5.003 C -2.24,-5.003 0,-2.763 0,0" style="fill:#ffffff;fill-opacity:1;fill-rule:nonzero;stroke:none" id="path572" inkscape:connector-curvature="0"/></g><g id="g574" transform="translate(5.0034,0)"><path d="m 0,0 c 0,2.763 -2.24,5.003 -5.003,5.003 -2.764,0 -5.004,-2.24 -5.004,-5.003 0,-2.763 2.24,-5.003 5.004,-5.003 C -2.24,-5.003 0,-2.763 0,0 z" style="fill:none;stroke:#000000;stroke-width:1;stroke-linecap:butt;stroke-linejoin:miter;stroke-miterlimit:4;stroke-opacity:1;stroke-dasharray:none" id="path576" inkscape:connector-curvature="0"/></g></g><g id="g582" clip-path="url(#clipPath584)" transform="matrix(1.3432159,0,0,-1.3432159,210.05371,370.31104)"><g id="g588" transform="translate(5.0034,0)"><path d="m 0,0 c 0,2.763 -2.24,5.003 -5.003,5.003 -2.764,0 -5.004,-2.24 -5.004,-5.003 0,-2.763 2.24,-5.003 5.004,-5.003 C -2.24,-5.003 0,-2.763 0,0" style="fill:#ffffff;fill-opacity:1;fill-rule:nonzero;stroke:none" id="path590" inkscape:connector-curvature="0"/></g><g id="g592" transform="translate(5.0034,0)"><path d="m 0,0 c 0,2.763 -2.24,5.003 -5.003,5.003 -2.764,0 -5.004,-2.24 -5.004,-5.003 0,-2.763 2.24,-5.003 5.004,-5.003 C -2.24,-5.003 0,-2.763 0,0 z" style="fill:none;stroke:#000000;stroke-width:1;stroke-linecap:butt;stroke-linejoin:miter;stroke-miterlimit:4;stroke-opacity:1;stroke-dasharray:none" id="path594" inkscape:connector-curvature="0"/></g></g><g id="g600" clip-path="url(#clipPath602)" transform="matrix(1.5717621,0,0,-1.5717621,148.07129,375.55859)"><g id="g606" transform="translate(5.0034,0)"><path d="m 0,0 c 0,2.763 -2.24,5.003 -5.003,5.003 -2.764,0 -5.004,-2.24 -5.004,-5.003 0,-2.763 2.24,-5.003 5.004,-5.003 C -2.24,-5.003 0,-2.763 0,0" style="fill:#ffffff;fill-opacity:1;fill-rule:nonzero;stroke:none" id="path608" inkscape:connector-curvature="0"/></g><g id="g610" transform="translate(5.0034,0)"><path d="m 0,0 c 0,2.763 -2.24,5.003 -5.003,5.003 -2.764,0 -5.004,-2.24 -5.004,-5.003 0,-2.763 2.24,-5.003 5.004,-5.003 C -2.24,-5.003 0,-2.763 0,0 z" style="fill:none;stroke:#000000;stroke-width:1;stroke-linecap:butt;stroke-linejoin:miter;stroke-miterlimit:4;stroke-opacity:1;stroke-dasharray:none" id="path612" inkscape:connector-curvature="0"/></g></g><g id="g618" clip-path="url(#clipPath620)" transform="matrix(1.2572937,0,0,-1.2572937,86.558594,370.83936)"><g id="g624" transform="translate(5.0034,0)"><path d="m 0,0 c 0,2.763 -2.24,5.003 -5.003,5.003 -2.764,0 -5.004,-2.24 -5.004,-5.003 0,-2.763 2.24,-5.003 5.004,-5.003 C -2.24,-5.003 0,-2.763 0,0" style="fill:#ffffff;fill-opacity:1;fill-rule:nonzero;stroke:none" id="path626" inkscape:connector-curvature="0"/></g><g id="g628" transform="translate(5.0034,0)"><path d="m 0,0 c 0,2.763 -2.24,5.003 -5.003,5.003 -2.764,0 -5.004,-2.24 -5.004,-5.003 0,-2.763 2.24,-5.003 5.004,-5.003 C -2.24,-5.003 0,-2.763 0,0 z" style="fill:none;stroke:#000000;stroke-width:1;stroke-linecap:butt;stroke-linejoin:miter;stroke-miterlimit:4;stroke-opacity:1;stroke-dasharray:none" id="path630" inkscape:connector-curvature="0"/></g></g><g id="g636" clip-path="url(#clipPath638)" transform="matrix(1,0,0,-1,33.984863,407.31934)"><g id="g642" transform="translate(14.6045,-21.4497)"><path d="m 0,0 c -4.809,-6.679 -13.552,-0.214 -18.212,3.196 -1.824,1.336 -4.145,2.77 -5.608,4.492 -2.927,3.441 -5.721,7.525 -5.978,12.172 -0.252,4.562 1.81,8.615 4.303,12.287 2.499,3.681 5.012,7.867 8.426,10.765 2.376,2.017 6.485,4.867 8.591,0.906 1.288,-1.43 1.727,-3.673 0.05,-5.489 C -12.782,33.61 -19.792,24.342 -16.834,17.398 -14.045,10.85 -6.264,10.058 -1.499,5.592 0,4.186 1.474,2.048 0,0" style="fill:#ffcc00;fill-opacity:1;fill-rule:nonzero;stroke:none" id="path644" inkscape:connector-curvature="0"/></g><g id="g646" transform="translate(14.6045,-21.4497)"><path d="m 0,0 c -4.809,-6.679 -13.552,-0.214 -18.212,3.196 -1.824,1.336 -4.145,2.77 -5.608,4.492 -2.927,3.441 -5.721,7.525 -5.978,12.172 -0.252,4.562 1.81,8.615 4.303,12.287 2.499,3.681 5.012,7.867 8.426,10.765 2.376,2.017 6.485,4.867 8.591,0.906 1.288,-1.43 1.727,-3.673 0.05,-5.489 C -12.782,33.61 -19.792,24.342 -16.834,17.398 -14.045,10.85 -6.264,10.058 -1.499,5.592 0,4.186 1.474,2.048 0,0 z" style="fill:none;stroke:#000000;stroke-width:1;stroke-linecap:butt;stroke-linejoin:miter;stroke-miterlimit:4;stroke-opacity:1;stroke-dasharray:none" id="path648" inkscape:connector-curvature="0"/></g></g><g id="g654" clip-path="url(#clipPath656)" transform="matrix(1,0,0,-1,79.561035,420.53076)"><g id="g660" transform="translate(26.7144,-21.6714)"><path d="m 0,0 c -0.612,0.549 -1.202,1.143 -1.772,1.674 -2.691,2.507 -6.296,3.913 -9.925,4.299 -5.615,0.596 -10.273,-3.598 -15.081,-5.825 -8.399,-3.887 -18.864,-1.669 -26.363,3.365 -7.899,5.303 -8.305,15.562 -6.948,24.079 0.789,4.953 3.636,9.308 7.48,12.448 2.529,2.065 8.04,7.066 11.589,4.494 3.166,-2.295 0.165,-5.919 -1.457,-8.12 -4.077,-5.538 -9.579,-15.706 -3.311,-21.853 7.671,-7.521 19.312,-1.426 28.096,-0.082 C -9.191,15.781 0.605,11.66 6.037,5.033 7.222,3.587 7.931,0.865 6.329,-0.679 3.969,-2.953 1.88,-1.688 0,0" style="fill:#feda02;fill-opacity:1;fill-rule:nonzero;stroke:none" id="path662" inkscape:connector-curvature="0"/></g><g id="g664" transform="translate(26.7144,-21.6714)"><path d="m 0,0 c -0.612,0.549 -1.202,1.143 -1.772,1.674 -2.691,2.507 -6.296,3.913 -9.925,4.299 -5.615,0.596 -10.273,-3.598 -15.081,-5.825 -8.399,-3.887 -18.864,-1.669 -26.363,3.365 -7.899,5.303 -8.305,15.562 -6.948,24.079 0.789,4.953 3.636,9.308 7.48,12.448 2.529,2.065 8.04,7.066 11.589,4.494 3.166,-2.295 0.165,-5.919 -1.457,-8.12 -4.077,-5.538 -9.579,-15.706 -3.311,-21.853 7.671,-7.521 19.312,-1.426 28.096,-0.082 C -9.191,15.781 0.605,11.66 6.037,5.033 7.222,3.587 7.931,0.865 6.329,-0.679 3.969,-2.953 1.88,-1.688 0,0 z" style="fill:none;stroke:#000000;stroke-width:1;stroke-linecap:butt;stroke-linejoin:miter;stroke-miterlimit:4;stroke-opacity:1;stroke-dasharray:none" id="path666" inkscape:connector-curvature="0"/></g></g><g id="g672" clip-path="url(#clipPath674)" transform="matrix(1,0,0,-1,124.1416,431.17334)"><g id="g678" transform="translate(12.041,-11.0381)"><path d="m 0,0 c -2.708,-1.926 -6.764,-0.924 -8.224,1.937 -2.454,4.81 6.9,8.665 2.747,12.233 -0.797,0.686 -1.945,0.915 -2.951,1.088 -4.242,0.727 -8.547,-0.514 -12.06,-2.94 -1.734,-1.197 -2.032,-3.897 -3.852,-4.855 -1.546,-0.815 -3.431,0.519 -3.514,2.189 -0.698,13.986 21.94,18.002 28.947,7.428 C 4.374,12.128 5.363,3.815 0,0" style="fill:#feda02;fill-opacity:1;fill-rule:nonzero;stroke:none" id="path680" inkscape:connector-curvature="0"/></g><g id="g682" transform="translate(12.041,-11.0381)"><path d="m 0,0 c -2.708,-1.926 -6.764,-0.924 -8.224,1.937 -2.454,4.81 6.9,8.665 2.747,12.233 -0.797,0.686 -1.945,0.915 -2.951,1.088 -4.242,0.727 -8.547,-0.514 -12.06,-2.94 -1.734,-1.197 -2.032,-3.897 -3.852,-4.855 -1.546,-0.815 -3.431,0.519 -3.514,2.189 -0.698,13.986 21.94,18.002 28.947,7.428 C 4.374,12.128 5.363,3.815 0,0 z" style="fill:none;stroke:#000000;stroke-width:1;stroke-linecap:butt;stroke-linejoin:miter;stroke-miterlimit:4;stroke-opacity:1;stroke-dasharray:none" id="path684" inkscape:connector-curvature="0"/></g></g><path inkscape:connector-curvature="0" id="path688" style="fill:#ffcc00;fill-opacity:1;fill-rule:nonzero;stroke:none" d="m 207.6104,298.1699 c 21.739,-26.56 20.93,-67.84 15.439,-94.06 -2.04,-9.73 -5.309,-18.94 -9.74,-27.379 -1.349,-2.581 -2.849,-4.971 -4.3,-7.281 -2.179,-3.45 -4.229,-6.719 -5.599,-10.32 -4.7,-12.38 -6.8,-26.71 -6.22,-42.59 0.149,-0.82 0.239,-1.94 0.029,-3.08 -0.309,-11.74 -5.46,-23.57 -14.38,-32.83 -9.339,-9.72 -21.559,-15.29 -33.509,-15.29 -3.97,0 -7.88,0.62 -11.62,1.82 -12.871,4.16 -24.19,14.91 -30.29,28.77 -3.97,9.03 -4.5,18.29 -5.01,27.25 -0.26,4.56 -0.5,8.86 -1.17,13.15 -1.82,11.73 -5.06,22.401 -9.64,31.72 -0.68,1.37 -1.35,2.72 -2.02,4.07 -5.64,11.35 -10.98,22.071 -13.36,35.8 -3.87,22.271 -4.66,55.25 9.13,80.33 11.5,20.91 36.9,33.65 63.739,33.65 22.521,0 45.72,-8.1 58.521,-23.73 m -115.41,-22.25 c -3.901,-9.33 -6.441,-20.17 -7.49,-31.58 -0.951,-10.17 -0.71,-20.8 0.81,-31.21 0.16,-1.17 0.35,-2.34 0.549,-3.5 1.471,-8.439 4.301,-15.84 7.641,-23.11 1.53,-3.31 3.16,-6.6 4.83,-9.95 0.67,-1.36 1.35,-2.73 2.029,-4.11 2.331,-4.75 4.341,-9.79 6.02,-15.1 1.96,-6.15 3.471,-12.669 4.531,-19.5 0.58,-3.73 0.87,-7.45 1.1,-11.09 0.059,-1.01 0.119,-2.02 0.18,-3.02 0.48,-8.44 0.93,-16.42 4.169,-23.79 0.69,-1.57 1.471,-3.1 2.321,-4.56 5.199,-9.05 13.119,-15.89 21.889,-18.72 2.75,-0.89 5.621,-1.34 8.551,-1.34 9.25,0 18.84,4.45 26.309,12.22 2.321,2.41 4.321,5.02 5.981,7.76 3.86,6.411 5.849,13.53 5.59,20.48 l 0,0.04 -0.08,2.12 0.009,0.021 c -0.069,2.979 -0.059,5.909 0.061,8.789 0.389,10.961 2.069,21.2 5.019,30.57 0.561,1.81 1.181,3.59 1.84,5.34 1.721,4.53 4.141,8.38 6.481,12.1 1.41,2.24 2.74,4.36 3.92,6.6 0.879,1.68 1.71,3.39 2.48,5.14 2.76,6.18 4.88,12.76 6.319,19.64 0.471,2.22 0.871,4.52 1.21,6.88 1.42,9.75 1.731,20.51 0.62,31.23 -1.129,10.88 -3.729,21.71 -8.149,31.37 -2.471,5.42 -5.511,10.47 -9.19,14.96 -10.92,13.34 -29.111,21.3 -48.661,21.3 -23.199,0 -43.659,-11.01 -53.399,-28.72 -1.26,-2.29 -2.42,-4.72 -3.49,-7.26"/><path inkscape:connector-curvature="0" id="path692" style="fill:#ff0000;fill-opacity:1;fill-rule:nonzero;stroke:none" d="m 215.0898,244.27 c 1.11,-10.72 0.8,-21.48 -0.62,-31.23 l -0.64,0.09 c -41.58,14.23 -86.72,14.23 -128.31,0 -1.52,10.41 -1.76,21.04 -0.81,31.21 42.26,14.42 88.12,14.4 130.37,-0.07 l 0.01,0 z"/><path inkscape:connector-curvature="0" id="path696" style="fill:#ffffff;fill-opacity:1;fill-rule:nonzero;stroke:none" d="m 215.0898,244.27 -0.01,0 c -42.25,14.47 -88.11,14.49 -130.37,0.07 1.05,11.41 3.59,22.25 7.49,31.58 37.6,10.18 77.23,10.07 114.741,-0.28 4.42,-9.66 7.019,-20.49 8.149,-31.37"/><path inkscape:connector-curvature="0" id="path700" style="fill:#ffffff;fill-opacity:1;fill-rule:nonzero;stroke:none" d="m 213.8301,213.1299 0.64,-0.09 c -0.34,-2.36 -0.74,-4.66 -1.21,-6.88 -1.44,-6.88 -3.56,-13.46 -6.32,-19.64 -37.06,10.14 -76.17,10.14 -113.23,0 -3.34,7.27 -6.17,14.671 -7.64,23.11 -0.2,1.16 -0.39,2.33 -0.55,3.5 41.59,14.23 86.73,14.23 128.31,0"/><path inkscape:connector-curvature="0" id="path704" style="fill:#ff0000;fill-opacity:1;fill-rule:nonzero;stroke:none" d="m 206.9404,186.5195 c -0.771,-1.75 -1.601,-3.46 -2.48,-5.14 -1.18,-2.24 -2.51,-4.36 -3.92,-6.599 -2.34,-3.721 -4.76,-7.571 -6.481,-12.101 -0.659,-1.75 -1.279,-3.529 -1.84,-5.34 l -0.05,0.021 c -28.009,7.67 -57.56,7.67 -85.569,0 l -0.011,0 c -1.679,5.309 -3.69,10.349 -6.02,15.099 -0.679,1.38 -1.359,2.75 -2.029,4.111 -1.67,3.349 -3.3,6.639 -4.83,9.949 37.06,10.141 76.169,10.141 113.23,0"/><path inkscape:connector-curvature="0" id="path708" style="fill:#ff0000;fill-opacity:1;fill-rule:nonzero;stroke:none" d="m 197.75,290.6001 c 3.68,-4.49 6.72,-9.54 9.19,-14.96 -37.51,10.35 -77.14,10.46 -114.74,0.28 1.07,2.54 2.23,4.97 3.49,7.26 9.74,17.71 30.2,28.72 53.4,28.72 19.55,0 37.74,-7.96 48.66,-21.3"/><path inkscape:connector-curvature="0" id="path712" style="fill:#ffffff;fill-opacity:1;fill-rule:nonzero;stroke:none" d="m 192.1699,157.3604 0.05,-0.021 c -2.95,-9.37 -4.63,-19.609 -5.02,-30.57 -24.54,6.721 -50.44,6.721 -74.98,0 -0.23,3.641 -0.52,7.361 -1.1,11.091 -1.06,6.83 -2.57,13.35 -4.53,19.5 l 0.01,0 c 28.01,7.67 57.56,7.67 85.57,0"/><path inkscape:connector-curvature="0" id="path716" style="fill:#ff0000;fill-opacity:1;fill-rule:nonzero;stroke:none" d="m 187.21,115.7998 c 0.26,-6.95 -1.729,-14.069 -5.59,-20.479 l -0.17,0.08 c -19.57,10.359 -43,10.359 -62.56,0 -0.85,1.46 -1.63,2.989 -2.32,4.559 -3.24,7.37 -3.69,15.35 -4.17,23.79 -0.06,1 -0.12,2.01 -0.18,3.02 24.54,6.72 50.44,6.72 74.98,0 -0.12,-2.88 -0.13,-5.81 -0.06,-8.789 l -0.01,-0.021 0.08,-2.12 0,-0.04 z"/><path inkscape:connector-curvature="0" id="path720" style="fill:#ffffff;fill-opacity:1;fill-rule:nonzero;stroke:none" d="m 181.4502,95.4004 0.17,-0.08 c -1.66,-2.74 -3.66,-5.351 -5.981,-7.761 -7.469,-7.769 -17.059,-12.22 -26.309,-12.22 -2.93,0 -5.8,0.451 -8.55,1.34 -8.77,2.83 -16.69,9.67 -21.89,18.721 19.56,10.359 42.99,10.359 62.56,0"/><path inkscape:connector-curvature="0" id="path724" style="fill:none;stroke:#000000;stroke-width:1;stroke-linecap:butt;stroke-linejoin:miter;stroke-miterlimit:4;stroke-opacity:1;stroke-dasharray:none" d="m 149.3301,65.3398 c -3.97,0 -7.88,0.62 -11.62,1.82 -12.87,4.16 -24.19,14.91 -30.29,28.77 -3.97,9.03 -4.5,18.29 -5.01,27.25 -0.26,4.56 -0.5,8.86 -1.17,13.15 -1.82,11.73 -5.06,22.401 -9.64,31.72 -0.68,1.37 -1.35,2.72 -2.02,4.07 -5.64,11.35 -10.98,22.071 -13.36,35.8 -3.87,22.271 -4.66,55.25 9.13,80.33 11.5,20.91 36.9,33.65 63.74,33.65 22.52,0 45.719,-8.1 58.52,-23.73 21.74,-26.56 20.93,-67.84 15.44,-94.059 -2.04,-9.731 -5.31,-18.941 -9.741,-27.38 -1.349,-2.58 -2.849,-4.971 -4.299,-7.281 -2.18,-3.45 -4.23,-6.719 -5.6,-10.32 -4.7,-12.38 -6.8,-26.71 -6.22,-42.59 0.15,-0.82 0.24,-1.94 0.03,-3.08 -0.31,-11.74 -5.46,-23.57 -14.38,-32.83 -9.34,-9.72 -21.56,-15.29 -33.51,-15.29 z"/><path inkscape:connector-curvature="0" id="path728" style="fill:none;stroke:#000000;stroke-width:1;stroke-linecap:butt;stroke-linejoin:miter;stroke-miterlimit:4;stroke-opacity:1;stroke-dasharray:none" d="m 206.9404,275.6401 c -2.471,5.42 -5.511,10.47 -9.19,14.96 -10.92,13.34 -29.111,21.3 -48.661,21.3 -23.199,0 -43.659,-11.01 -53.399,-28.72 -1.26,-2.29 -2.42,-4.72 -3.49,-7.26 -3.901,-9.33 -6.441,-20.17 -7.49,-31.58 -0.951,-10.17 -0.71,-20.8 0.81,-31.21 0.16,-1.17 0.35,-2.34 0.549,-3.5 1.471,-8.44 4.301,-15.84 7.641,-23.111 1.53,-3.309 3.16,-6.599 4.83,-9.949 0.67,-1.36 1.35,-2.73 2.029,-4.11 2.33,-4.75 4.341,-9.79 6.02,-15.1 1.96,-6.15 3.471,-12.67 4.531,-19.5 0.58,-3.73 0.87,-7.45 1.1,-11.091 0.059,-1.009 0.119,-2.019 0.179,-3.019 0.48,-8.441 0.931,-16.42 4.17,-23.79 0.69,-1.57 1.471,-3.1 2.321,-4.56 5.199,-9.051 13.119,-15.89 21.889,-18.72 2.75,-0.89 5.62,-1.34 8.551,-1.34 9.25,0 18.839,4.45 26.309,12.219 2.321,2.411 4.321,5.021 5.981,7.761 3.86,6.41 5.849,13.529 5.59,20.48 l 0,0.04 -0.081,2.12 0.01,0.02 c -0.069,2.98 -0.059,5.91 0.061,8.789 0.389,10.961 2.069,21.201 5.019,30.571 0.561,1.81 1.181,3.59 1.84,5.34 1.721,4.53 4.141,8.379 6.481,12.1 1.41,2.239 2.74,4.36 3.92,6.6 0.879,1.679 1.709,3.389 2.48,5.139 2.76,6.181 4.88,12.761 6.319,19.641 0.471,2.22 0.87,4.52 1.21,6.88 1.42,9.75 1.731,20.51 0.62,31.23 -1.129,10.88 -3.729,21.71 -8.149,31.37 z"/><path inkscape:connector-curvature="0" id="path732" style="fill:none;stroke:#000000;stroke-width:1;stroke-linecap:butt;stroke-linejoin:miter;stroke-miterlimit:4;stroke-opacity:1;stroke-dasharray:none" d="m 92.1299,275.8999 c 0.02,0.01 0.05,0.01 0.07,0.02 37.6,10.18 77.23,10.07 114.741,-0.28"/><path inkscape:connector-curvature="0" id="path736" style="fill:none;stroke:#000000;stroke-width:1;stroke-linecap:butt;stroke-linejoin:miter;stroke-miterlimit:4;stroke-opacity:1;stroke-dasharray:none" d="m 215.0801,244.27 c -42.25,14.47 -88.11,14.49 -130.37,0.07 -0.07,-0.02 -0.14,-0.05 -0.21,-0.07"/><path inkscape:connector-curvature="0" id="path740" style="fill:none;stroke:#000000;stroke-width:1;stroke-linecap:butt;stroke-linejoin:miter;stroke-miterlimit:4;stroke-opacity:1;stroke-dasharray:none" d="m 85.52,213.1299 c 41.59,14.23 86.73,14.23 128.31,0"/><path inkscape:connector-curvature="0" id="path744" style="fill:none;stroke:#000000;stroke-width:1;stroke-linecap:butt;stroke-linejoin:miter;stroke-miterlimit:4;stroke-opacity:1;stroke-dasharray:none" d="m 93.71,186.5195 c 37.06,10.141 76.17,10.141 113.23,0"/><path inkscape:connector-curvature="0" id="path748" style="fill:none;stroke:#000000;stroke-width:1;stroke-linecap:butt;stroke-linejoin:miter;stroke-miterlimit:4;stroke-opacity:1;stroke-dasharray:none" d="m 106.6001,157.3604 c 28.01,7.67 57.56,7.67 85.57,0"/><path inkscape:connector-curvature="0" id="path752" style="fill:none;stroke:#000000;stroke-width:1;stroke-linecap:butt;stroke-linejoin:miter;stroke-miterlimit:4;stroke-opacity:1;stroke-dasharray:none" d="m 112.2202,126.7695 c 24.54,6.721 50.44,6.721 74.98,0"/><path inkscape:connector-curvature="0" id="path756" style="fill:none;stroke:#000000;stroke-width:1;stroke-linecap:butt;stroke-linejoin:miter;stroke-miterlimit:4;stroke-opacity:1;stroke-dasharray:none" d="m 118.8901,95.4004 c 19.56,10.359 42.99,10.359 62.56,0"/></g></svg>