<svg height="660" viewBox="0 0 600 660" width="600" xmlns="http://www.w3.org/2000/svg" xmlns:xlink="http://www.w3.org/1999/xlink"><defs><radialGradient id="a" cx="-80" cy="-80" gradientUnits="userSpaceOnUse" r="405"><stop offset="0" stop-color="#fff" stop-opacity=".31"/><stop offset=".19" stop-color="#fff" stop-opacity=".25"/><stop offset=".6" stop-color="#6b6b6b" stop-opacity=".125"/><stop offset="1" stop-opacity=".125"/></radialGradient><path id="b" d="m-298.5-298.5h597v258.5c0 286.31-298.5 398.5-298.5 398.5s-298.5-112.19-298.5-398.5z"/></defs><g transform="translate(300 300)"><use fill="#fff" height="660" width="600" xlink:href="#b"/><g><g stroke-linecap="round" transform="matrix(-1 0 0 1 -682.68743 0)"><g fill="#e20909" stroke="#000" stroke-linecap="round" stroke-linejoin="round" stroke-width="2.5" transform="translate(-300 -300)"><path d="m-553.78846 139.1958 21.70017 19.09616c-51.3049 47.59086 8.66314 239.41952-65.03964 201.43088 41.15152-12.43775-9.07695-161.85466 43.33947-220.52704z"/><path d="m-532.08829 158.29196 22.56819 16.49213c-49.72675 42.86396 26.2539 128.88429-34.0314 159.08501-6.1084 3.06008-12.78688-8.40403-5.91833-9.34473 20.46497-2.80284-28.87639-105.0208 17.38154-166.23241z"/><path d="m-509.5201 174.78409 23.09615 14.1521c-32.76457 32.36479 19.46612 79.23713-18.1912 113.78383-6.3701 5.84391-13.25246 4.81653-10.59069-3.11491 7.86199-23.42684-30.57389-95.16888 5.68574-124.82102z"/><path d="m-486.42395 188.93619 19.03344 8.54901c-16.70675 40.30107 25.60802 72.34795-20.40413 89.03729 12.62583-20.39363-25.80306-72.04528 1.37069-97.5863z"/><path d="m-467.39051 197.4852 14.48284 1.19688c-4.57291 48.67007 30.56314 72.00088-9.03323 73.38078 16.73426-29.9829-17.51791-21.35228-5.44961-74.57766z"/><path d="m-452.90767 198.68208 19.00083 1.42072c-6.90495 7.56671-7.66545 20.26416-3.74437 37.88425 1.48638 6.67932-5.60746 2.68959-6.60772 1.32155-12.2586-16.76587-7.83368-28.01488-8.64874-40.62652z"/><path d="m-567.67657 102.73951 13.88811 36.45629c-43.63505 43.01909-9.04772 145.52851-55.0722 134.50516 18.98815-11.85036-1.26468-138.02482 41.18409-170.96145z"/></g><path d="m-779.62834-100.24005c-12.7221 29.549883 7.14202 41.156655 2.46604 72.450187 1.30496-24.029498-17.79052-48.991294-5.58156-72.554567"/><path d="m-803.50047-109.19331c-18.66319 30.446667 6.82993 66.370571-2.36908 98.851134 6.39203-31.656738-19.98978-71.130649-.62295-100.293244"/><path d="m-824.3255-123.4608c-24.52618 38.357012-5.90225 78.440661-8.96072 118.7790033-2.83656-40.6454753-16.80482-91.3656013 5.70354-120.1144733"/><path d="m-848.68183-141.74455c-40.08293 71.333954-.45077 169.41879-31.68311 198.295763 27.96187-30.599039-11.46673-129.420445 28.46856-200.087203"/><path d="m-869.04501-165.67536c-7.97138 9.31944-13.79228 42.87734-15.72478 57.14087-1.77764 13.102797-2.9372 48.533473-10.28241 66.236328 4.54675-15.402171 6.44284-51.163385 7.66478-66.261858 1.05311-13.01231 7.31645-50.65464 15.69137-59.4909"/><path d="m-758.69246-95.607475c-7.46121 16.910151 6.63388 30.723235 7.19506 48.447432-2.19311-12.087794-16.42611-35.54824-9.19828-51.190718"/><path d="m-746.30548-96.344402c-1.22993 8.291276 1.18899 23.340317 5.0681 33.623435-3.89287-6.674224-7.80381-20.651613-6.88041-31.733309"/></g><g stroke-linecap="round" transform="translate(690.20507)"><g fill="#e20909" stroke="#000" stroke-linecap="round" stroke-linejoin="round" stroke-width="2.5" transform="translate(-300 -300)"><path d="m-553.78846 139.1958 21.70017 19.09616c-51.3049 47.59086 8.66314 239.41952-65.03964 201.43088 41.15152-12.43775-9.07695-161.85466 43.33947-220.52704z"/><path d="m-532.08829 158.29196 22.56819 16.49213c-49.72675 42.86396 26.2539 128.88429-34.0314 159.08501-6.1084 3.06008-12.78688-8.40403-5.91833-9.34473 20.46497-2.80284-28.87639-105.0208 17.38154-166.23241z"/><path d="m-509.5201 174.78409 23.09615 14.1521c-32.76457 32.36479 19.46612 79.23713-18.1912 113.78383-6.3701 5.84391-13.25246 4.81653-10.59069-3.11491 7.86199-23.42684-30.57389-95.16888 5.68574-124.82102z"/><path d="m-486.42395 188.93619 19.03344 8.54901c-16.70675 40.30107 25.60802 72.34795-20.40413 89.03729 12.62583-20.39363-25.80306-72.04528 1.37069-97.5863z"/><path d="m-467.39051 197.4852 14.48284 1.19688c-4.57291 48.67007 30.56314 72.00088-9.03323 73.38078 16.73426-29.9829-17.51791-21.35228-5.44961-74.57766z"/><path d="m-452.90767 198.68208 19.00083 1.42072c-6.90495 7.56671-7.66545 20.26416-3.74437 37.88425 1.48638 6.67932-5.60746 2.68959-6.60772 1.32155-12.2586-16.76587-7.83368-28.01488-8.64874-40.62652z"/><path d="m-567.67657 102.73951 13.88811 36.45629c-43.63505 43.01909-9.04772 145.52851-55.0722 134.50516 18.98815-11.85036-1.26468-138.02482 41.18409-170.96145z"/></g><path d="m-779.73371-100.24005c-12.7221 29.549883 7.24739 41.156655 2.57141 72.450187 1.30496-24.029498-17.76418-48.938612-5.55522-72.501887"/><path d="m-803.50047-109.19331c-18.66319 30.446667 6.82993 66.370571-2.36908 98.851134 6.39203-31.656738-20.15157-71.151374-.78474-100.313964"/><path d="m-824.51176-123.31179c-24.52618 38.357009-5.71599 78.291651-8.77446 118.6299933-2.83656-40.6454753-16.9352-91.2165943 5.57316-119.9654733"/><path d="m-848.68183-141.74455c-40.08293 71.333954-.45077 169.41879-31.68311 198.295763 27.96187-30.599039-11.46673-129.420445 28.46856-200.087203"/><path d="m-869.04501-165.67536c-7.97138 9.31944-13.79228 42.87734-15.72478 57.14087-1.77764 13.102797-2.9372 48.533473-10.28241 66.236328 4.54675-15.402171 6.44284-51.163385 7.66478-66.261858 1.05311-13.01231 7.34438-50.30075 15.7193-59.13701"/><path d="m-758.69246-95.607475c-7.46121 16.910151 6.63388 30.723235 7.19506 48.447432-2.19311-12.087794-15.94903-31.873615-9.64607-51.678026"/><path d="m-746.44809-96.198363c-1.22993 8.291276 1.3316 23.194278 5.21071 33.477396-3.89287-6.674224-7.63353-20.500507-6.71013-31.582203"/></g><path d="m-80.790512-201.29469c3.97863 2.92732 8.67488 5.71526 16.74352 5.71526 10.88688 0 27.16458-11.98812 40.11798-11.98812 10.75522 0 19.19504 4.30068 24.75178 8.10647l-1.7087 11.26967c-3.39836-3.34551-11.70175-11.36083-22.62858-11.36083-12.00441 0-26.1228 10.66385-38.70902 10.66385-10.09951 0-17.60539-7.98046-18.56698-12.4063z" fill="#e20909" stroke="#000" stroke-linecap="round" stroke-linejoin="round" stroke-width="2.5"/><path d="m30.48632-251.875c-1.25641 4.45185-4.98922 6.41766-9.125 8.34375-5.67074 1.91722-14.12119 2.59186-25.5.71875-8.14439-1.34072-17.97553-1.23806-25.65625.65625-3.84067.94719-7.04419 2.39301-9.34375 4.28125-2.19326 1.80095-3.45101 4.03981-3.28125 6.75 5.18818 12.45252 66.45668 16.13566 39.25 48.8125 1.01797 16.05876-4.21934 23.77309-18.40625 30.625-7.12872 3.44294-14.48946 5.15543-20.28125 4.53125-5.7915-.62416-9.98661-3.48464-11.21875-9.28125-2.90888 1.17398-3.57527 4.12457-4.1875 6.875.19035 2.68475 1.42796 5.42587 3.5 7.28125 2.94576 2.63744 7.99885 4.28587 13.40625 4.59375 3.86556.22007 7.94349-.26701 11.625-1.625-2.20536 1.65464-7.48322 6.49317-11.6875 10-33.85657 10.19152-47.73272 1.01854-57.1875-15 9.53761-14.97141-12.40739-18.1495-20.25-24.3125-17.61639-13.84359-29.68847-26.81421-17.9375-52.0625 10.27573 7.9308 17.01582 3.20867 23.4375-2.625-8.24478.73712-13.15129.87553-18.90625-5.28125-4.61032-4.93221-7.42998-23.02907-25.375-12.0625-7.22049 4.41259-10.44557 10.48339-19.5625 16.65625-21.30489 14.42507-25.9451 43.24655-45.53125 40.625 20.22076 18.06991 30.7386-4.07524 44.25-13.875-13.64433 26.70337-2.36745 33.55774 13.90625 36.4375-5.61706 21.55228 9.63712 18.42117 21.6875 19.09375-2.94595 17.60178 7.70922 19.47857 22.5625 16.5-1.45785 19.57646 10.66715 16.04281 19.09375 12.15625 2.19443 8.06319 6.21039 16.71857 16.5 8.6875 3.21891 9.43931 8.18501 11.32418 13.90625 4.34375 3.36951 9.13651 11.81852 8.60698 13.875 0l7.59375 22.28125c5.40019 12.36251 12.15376 24.29524 13.59375 37.75-.00031 1.9311-1.40337 4.05978-3.65625 6.375-2.25303 2.31522-5.35718 4.76718-8.75 7.28125-6.78535 5.02811-14.73897 10.37271-19.0625 15.59375-1.35827 1.64039-2.80157 4.34306-4.5625 7.5625-1.76064 3.21944-3.75999 6.92391-6.28125 10.40625-5.04254 6.96469-11.85496 13.06251-21.75 13.0625-3.34951 0-5.93057-.80115-7.625-2.125-1.69426-1.32385-2.55298-3.22698-2.40625-5.34375-3.38822 2.19656-3.49778 5.99672-3.46875 9.6875 1.68827 3.52441 6.16918 6.49999 13.84375 6.5 6.21782 0 11.59833-1.68994 16.1875-3.96875 7.56089.85379 14.31327-4.26827 30.28125 10.09375 2.21754 5.40463 6.99324 8.14256 12.90625 9.28125.03119.0027.06287.0027.09375 0 .03057.0027.09428.0027.125 0 .06852-.01341.13389-.05576.1875-.09375.03549-.02208.06733-.03275.09375-.0625.0031-.02601.0031-.03651 0-.0625.0031-.02601.0031-.09901 0-.125.0031-.02601.0031-.0053 0-.03125.0031-.02601.0031-.09901 0-.125-2.50483-10.01639-1.914-18.05566.75-23.90625 2.58165-5.67009 7.16293-9.13454 12.71875-10.375 6.429899 28.727056-.59838 41.41004-.90625 62.125l-3.53125 29.25-29.1875 62.03125c-15.01023 25.45659 11.4499 43.3696 28.6875 28.875-16.33624-1.38991-12.45028-17.42548-.625-24 11.70298-6.5065 18.0294-15.19665 21.09375-24.8125-1.29374 21.19454-2.56398 41.10068-14.59375 55.53125-3.60576 4.32504 3.30004 6.71875 11.90625 6.71875.17084 4.57418 6.30478 8.68752 12.28125 8.6875 5.97632.00001 12.07884-4.11332 12.25-8.6875 8.6062 0 15.51172-2.39371 11.90625-6.71875-12.02991-14.43056-13.30033-34.33672-14.59375-55.53125 3.06436 9.61586 9.35951 18.30599 21.0625 24.8125 11.82558 6.57452 15.71154 22.61009-.625 24 17.23776 14.4946 43.72883-3.41841 28.71875-28.875l-30.25-63.5625-2.4375-27.84375c-7.24809-20.16136-6.036691-37.122299-.875-62 5.55552 1.24045 10.10569 4.70492 12.6875 10.375 2.66369 5.85058 3.31732 13.88989.8125 23.90625-.03534.02204-.06747.09524-.09375.125.01598.0575.04857.11104.09375.15625-.0032.02596-.0032.0365 0 .0625.02627.02973.05841.04043.09375.0625.02627.02973.05842.07168.09375.09375.03103.0027.06287.0027.09375 0 .03088.0027.06288.0027.09375 0 .03088.0027.06286.0027.09375 0 5.45873-.64169 8.9066-2.999 11.15625-6.15625.67583-.94839 1.16126-2.03451 1.65625-3.09375 5.57918-8.45771 16.65835-10.7592 30.21875-10.25 4.6288 2.32413 10.07589 4.09374 16.375 4.09375 7.67427 0 12.12423-2.97558 13.8125-6.5 1.68797-3.52441.65417-7.58377-2.6875-9.96875-1.02243 1.77147-2.09773 3.77804-3.15625 5.625-1.69411 1.32384-4.24394 2.12501-7.59375 2.125-9.89518 0-16.76964-6.09781-21.8125-13.0625-2.52096-3.48235-4.52032-7.18682-6.28125-10.40625-1.76094-3.21943-3.20408-5.92212-4.5625-7.5625-4.35088-5.25382-13.85037-10.71863-22.21875-15.90625-4.18419-2.5938-8.09481-5.09142-10.9375-7.46875-2.84267-2.37732-4.5625-4.60894-4.5625-6.5.00015-14.05025 19.40499-26.57033 27.375-37.125l7.5625-22.28125c2.05647 8.60698 10.53674 9.13651 13.90625 0 5.72126 6.98043 10.65609 5.09556 13.875-4.34375 10.28961 8.03107 14.30557-.62431 16.5-8.6875 8.42661 3.88656 20.5516 7.42021 19.09375-12.15625 14.85327 2.97857 25.50845 1.10178 22.5625-16.5 12.05039-.67258 27.33581 2.45853 21.71875-19.09375 16.27372-2.87976 27.51933-9.73413 13.875-36.4375 13.5114 9.79976 24.06049 31.94491 44.28125 13.875-19.58616 2.62155-24.22636-26.19993-45.53125-40.625-9.11692-6.17286-12.37326-12.24366-19.59375-16.65625-17.94503-10.96657-20.76468 7.13029-25.375 12.0625-5.75495 6.15678-10.63022 6.01837-18.875 5.28125 6.42169 5.83367 13.16177 10.5558 23.4375 2.625 11.75098 25.24829-.35236 38.21891-17.96875 52.0625-7.84262 6.163-29.75636 9.34109-20.21875 24.3125-10.47539 17.74768-26.38443 27.08311-68.875 11-7.82128-5.36018-14.15552-.63002-18.09375 1.34375 7.56642-7.47513 14.17804-17.19287 14.90625-27.15625.69611 2.52394 2.17144 6.29419 5.75 9.78125 4.29235 4.18249 11.2457 7.38387 21.84375 5.34375-3.59009-1.75412-8.28532-4.87662-12-7.46875-2.68688-3.163-4.22266-7.14681-5.09375-11.53125-1.69764-8.54265-.9745-18.51099-2.15625-26.875 2.73052 1.89041 6.46621 2.91666 10.03125 2.40625 3.88323-.55602 7.41575-2.87826 8.625-7.34375.0029-.026.0031-.099 0-.125-.02658-.0298-.0581-.009-.09375-.0312.0034-.026.0034-.099 0-.125-.02611-.0298-.05842-.0405-.09375-.0625-.02643-.0298-.05825-.0405-.09375-.0625-.03072-.003-.06303-.003-.09375 0-.03104-.003-.00036-.003-.03125 0-.03073-.003-.06287-.003-.09375 0-.03088-.003-.09414-.003-.125 0-4.66921 1.30974-7.72751 1.22963-9.875.25-2.14748-.97964-3.40048-2.90189-4.59375-5.375-2.18143-4.52115-4.24543-10.75572-9.34375-15.96875 2.87079 1.9072 6.70772 3.4941 10.71875 3.5625 4.69072.08 9.24129-2.00248 11.8125-7.5-2.70286.17049-6.25347.98051-9.21875 1.53125-3.08218.0107-5.92262-.80217-7.71875-2.3125-2.87155-2.41446-4.3579-5.39519-6.5-8.125-1.97649-2.51846-4.87619-4.63312-9.6875-5.71875 10.44012-2.31103 12.80095-10.90106 5.4375-17z" fill="#e20909" stroke="#000" stroke-linecap="round" stroke-linejoin="round" stroke-width="2.5"/><path d="m0 82.15625c-36.09831 0-67.22879 41.40365-81.5625 101.09375 6.68865-2.58747 13.95919-4.03125 21.5625-4.03125 10.93992-.00001 21.16505 2.94138 30 8.0625 8.83193 5.11931 19.0638 8.0625 30 8.0625 10.9399-.00001 21.165-2.94138 30-8.0625 8.8319-5.11933 19.0638-8.0625 30-8.0625 7.60588-.00001 14.87457 1.4437 21.5625 4.03125-14.33371-59.6901-45.46418-101.09374-81.5625-101.09375z" fill="#5ab532" stroke="#000" stroke-linejoin="round" stroke-width="3"/><path d="m166 382.15625c-37.60984 0-69.835716 44.9434-83.28125 108.6875 2.509207-1.03428 4.953947-2.21349 7.28125-3.5625 8.83193-5.11933 19.0638-8.0625 30-8.0625 10.93992-.00001 21.16505 2.94138 30 8.0625 8.83193 5.11931 19.0638 8.0625 30 8.0625 10.93992-.00001 21.16505-2.94138 30-8.0625 8.83193-5.11933 19.0638-8.0625 30-8.0625 2.25413 0 4.46872.13191 6.65625.375-14.71043-57.72004-45.29869-97.43749-80.65625-97.4375z" fill="#5ab532" stroke="#000" stroke-linejoin="round" stroke-width="3" transform="translate(-300 -300)"/><path d="m434 382.15625c-35.35756 0-65.94582 39.71745-80.65625 97.4375 2.18748-.2432 4.40288-.375 6.65625-.375 10.9399-.00001 21.1651 2.94138 30 8.0625 8.8319 5.11931 19.0638 8.0625 30 8.0625 10.9399-.00001 21.1651-2.94138 30-8.0625 8.8319-5.11933 19.0638-8.0625 30-8.0625 10.9399-.00001 21.1651 2.94138 30 8.0625 2.32654 1.34853 4.77175 2.52806 7.28125 3.5625-13.44553-63.74409-45.6714-108.68749-83.28125-108.6875z" fill="#5ab532" stroke="#000" stroke-linejoin="round" stroke-width="3" transform="translate(-300 -300)"/><path d="m-.000392 22.12969v48.769876" fill="#e20909" stroke="#000" stroke-linecap="round" stroke-linejoin="round" stroke-width="2.489136"/><path d="m-25.13868 9.625c3.95988 12.89046-8.456602 68.297109-38.414692 57.976417 2.26393 7.789159 10.5492 11.76503 18.93401 11.76503 27.95011 0 34.11125-39.599999 31.46231-56.093165" fill="#e20909" stroke="#000" stroke-linecap="round" stroke-linejoin="round" stroke-width="2.489136"/><path d="m-1.531652-211.46998c3.63449 2.75395 6.05774 5.84736 6.05774 22.13659 0 5.9234-6.21583 7.80841-16.11608 7.11144-9.9147-.698-22.48201-.45456-31.65497 2.24199 1.62928-12.05003 24.39812-16.43307 40.11798-15.05485 1.82363-10.77301-10.17633-20.80202-31.99495-17.42458-8.73525-6.26325-23.35142.62586-24.20347 8.78199-11.93112-11.98358-2.09125-26.90355 16.57775-26.90355 15.91621 13.0543 27.23495 8.51733 41.216 19.11097z" fill="#e20909" stroke="#000" stroke-linecap="round" stroke-linejoin="round" stroke-width="2.5"/><path d="m-42.417952-231.0985c16.03573 1.30489 31.36506-1.81637 46.61788-4.20214-6.66843.60674-19.51751 3.31643-23.61767 6.96007-2.50022 2.22181-6.6099 4.3948-9.5386 3.04505-2.17421-1.002-3.72022-3.67473-5.65799-4.47974-1.93777-.80505-4.2673.25767-7.80362-1.32324z" fill="#e20909" fill-rule="evenodd" stroke="#000" stroke-linecap="round" stroke-width="2.489136"/><path d="m25.14257 9.625c-3.95989 12.890462 8.846448 68.866868 38.804388 58.546176-2.26378 7.789161-10.54904 11.765032-18.93386 11.765032-27.95011 0-34.11125-39.600001-31.46231-56.093166" fill="#e20909" stroke="#000" stroke-linecap="round" stroke-linejoin="round" stroke-width="2.489136"/><g fill="#e20909" stroke="#000" stroke-width="2.982816" transform="matrix(.67015168 0 0 .6708631 463.91242 -48.536771)"><path d="m-691.99833-289.14968h47.71071v-19.81115h-47.71071" fill-rule="evenodd" stroke-linecap="round" stroke-linejoin="round" stroke-width="2.982816"/><path d="m-690.49294-289.14968h-47.7107v-19.81115h47.7107" fill-rule="evenodd" stroke-linecap="round" stroke-linejoin="round" stroke-width="2.982816"/><path d="m-738.81261-297.02527c-2.79906 0-5.05 2.07398-5.05 4.65s2.25094 4.65 5.05 4.65h46.6 5.125 43.4c2.79905 0 5.05-2.07398 5.05-4.65s-2.25095-4.65-5.05-4.65h-43.4-5.125z" fill-rule="evenodd" stroke-linecap="round" stroke-linejoin="round" stroke-width="2.982816"/><g fill-rule="evenodd" stroke-linecap="round" stroke-linejoin="round" stroke-width="3.72852" transform="matrix(1 0 0 .64 -1536.7798 -272.33893)"><path d="m844.57946-56.768206h48.51647c2.79905 0 5.05245-2.073824 5.05245-4.649824 0-2.576024-2.2534-4.649864-5.05245-4.649864h-48.51647"/><path d="m846.48877-56.768206h-48.51646c-2.79906 0-5.05246-2.073824-5.05246-4.649824 0-2.576024 2.2534-4.649864 5.05246-4.649864h48.51646"/></g><g stroke-width="2.982816"><path d="m-742.32774-314.26769h102.16423l4.50053-13.53124c-13.24645 12.32244-23.36269 15.064-31.68699 4.92983-4.75161 10.13237-15.79144 8.11349-23.89566-4.92983-7.63439 13.04332-18.20439 15.0622-23.89566 4.92983-14.7009 4.47603-17.01185 13.21272-31.68699-4.92983z" fill-rule="evenodd"/><path d="m-688.92187-322.89101c.0854-3.71331 1.00396-7.16454 2.7144-10.43511 4.47796-9.42085 18.15536-9.19585 15.14036 2.32614-1.111 4.24571-4.88519 6.74105-9.3689 7.16905.32362-1.11869 2.10372-5.0736.66674-5.84729-2.29777.0868-5.15103 4.05786-5.83719 5.95153-.099.27187-.0713.58604-.18195.85347" fill-rule="evenodd"/><path d="m-694.61795-322.64553c-.0854-3.71329-1.00398-7.16452-2.7144-10.4351-4.47798-9.42084-18.15538-9.19584-15.14036 2.32614 1.111 4.24572 4.88516 6.74106 9.36888 7.16906-.32363-1.1187-2.10372-5.0736-.66674-5.8473 2.29778.0868 5.15102 4.05787 5.83718 5.95153.0991.27187.0714.58604.18196.85347" fill-rule="evenodd"/><path d="m-692.03459-358.6213c-4.71772 5.0854-7.88527 10.9657-6.51976 17.86233.75336 3.80488 2.57969 7.32877 3.86764 10.99424.80532 2.29967 1.01124 4.70196.91588 7.11908h4.00251c-.19159-2.43491.22814-4.79464.91586-7.11908 1.22711-3.68827 3.09416-7.18648 3.86764-10.99424 1.44611-7.11896-1.94828-12.48791-6.49913-17.83986l-.27812-.35471z"/><path d="m-701.28088-322.76495h19.052425v3.086825h-19.052425z"/><path d="m-740.22832-319.16761c-1.76831-3.26635-2.68319-6.71856-2.82091-10.40683-.78649-10.40125 11.20018-16.99225 14.29937-5.49262 1.14201 4.23748-.89669 8.27664-4.57719 10.87293-.27409-1.13185-.69089-5.44883-2.32239-5.40758-1.95191 1.21546-2.45884 6.07894-2.115 8.06352.0489.28518.22883.54422.2655.83128" fill-rule="evenodd"/><path d="m-742.94711-317.46655 2.10561-1.06804c-1.37446-2.01899-2.18088-4.27604-2.7371-6.6354-.76461-3.8111-.87931-7.7747-2.09706-11.46447-2.2767-6.89836-7.88772-9.87561-14.49438-12.26429l-.41746-.16997z"/><path d="m-488.57535-644.26453h10.947846v3.086825h-10.947846z" transform="matrix(.86822362 -.49617311 .49617311 .86822362 0 0)"/><path d="m-642.26362-319.16856c1.76829-3.26633 2.68316-6.71856 2.82091-10.40681.78648-10.40125-11.2002-16.99226-14.2994-5.49264-1.142 4.23748.8967 8.27664 4.57721 10.87294.27407-1.13186.69087-5.44882 2.32239-5.40758 1.95189 1.21546 2.45884 6.07894 2.115 8.06352-.0489.28518-.22884.54421-.26552.83128" fill-rule="evenodd"/><path d="m-639.54483-317.46749-2.10564-1.06804c1.37448-2.01899 2.18088-4.27604 2.73712-6.6354.7646-3.8111.87931-7.77471 2.09704-11.46447 2.27672-6.89837 7.88774-9.87561 14.49438-12.26429l.41747-.16997z"/><path d="m711.73633 41.690498h10.947846v3.086825h-10.947846z" transform="matrix(-.8682236 -.4961731 -.4961731 .8682236 0 0)"/></g></g><g id="c" stroke-linecap="round"><path d="m226.78125 323.59375c-3.01821.0726-6.0983.58981-9.09375 1.46875-9.82359 13.02153-22.82501 25.44773-51.78125 46.96875-3.99134 2.96647-7.52225 4.04167-19.21875 6.0625-4.33987.74981-5.10765 8.71612-8.375 11.40625-2.61336 2.15164-6.78622 3.565-11 4.96875-4.21368 1.40367-8.47265 2.80458-11.3125 5.1875-1.9007 1.59484-3.33632 3.59208-4.0625 5.5625l1.90625 7.3125c3.05242 2.4484 7.21062 2.09776 10.34375-.53125 1.16499-.9776 1.74656-2.41468 2.40625-3.78125.65982-1.36668 1.38154-2.69153 2.53125-3.65625.70389-.59065 1.75187-.78706 2.96875-.9375 1.21698-.15055 2.52835-.19703 3.78125-.84375.63267-.32656 1.33177-.75859 2-1.25-.1987.23716-.42542.49865-.625.71875-2.27832 2.51242-8.0091 6.09555-12.625 9.96875-2.06111 1.72944-3.01968 4.02628-3.09375 6.15625l4.5625 6.59375c.64221.24957 1.30306.48317 2.03125.5625 2.16882.23593 4.72229-.39624 6.96875-2.28125 1.31503-1.10351 1.99098-2.31607 2.34375-3.4375.35289-1.12154.35018-2.19363.25-3.15625-.10007-.96273-.25907-1.80792-.28125-2.5-.0221-.6922.0996-1.10154.5-1.4375 1.29867-1.08978 2.50052-1.80452 3.78125-2.59375.86892-.53546 1.73289-1.09083 2.65625-1.875-.4996 1.16013-.97252 2.29105-1.46875 3.4375-1.45622 3.36455-2.82648 6.66155-3.65625 9.53125-.82965 2.8696-1.1308 5.37632-.375 7.21875l11.1875 4.5c1.93873-.0249 4.26894-.83603 6.15625-2.3125 1.8872-1.47637 3.35609-3.59326 3.40625-6.09375.0622-3.10165-1.83901-5.92324-3.5-8.625-1.66087-2.7019-3.02766-5.28132-2.28125-8.0625.79827-2.97488 2.09-5.08099 3.6875-7.0625 1.59762-1.98162 3.53386-3.84702 5.53125-6.28125 4.90968 2.22401 13.81933 2.0927 20.03125-.25 2.58067.80869 5.97751 2.61952 7.3125 5.125.69632 1.30666.98566 3.18773 1.53125 5.09375.54546 1.90593 1.3806 3.95977 3.3125 5.3125 1.91834 1.34319 4.497 2.20506 6.90625 2.3125 2.40912.10735 4.64651-.62951 6-2.5625.21008-.30029.34417-.62129.53125-.9375l1.6875-10.1875c-.58039-2.2463-1.84896-4.35945-3.96875-5.84375-1.85489-1.29881-5.14459-2.25631-8.625-3.0625-2.24961-.52105-4.22051-.76481-6.28125-1.0625-3.24891-4.07517-9.69656-7.98198-6.3125-12.40625 11.29756-10.08847 29.46788-21.35528 41.625-32.6875.6133-.57164 1.96549-1.07312 3.71875-1.5625 1.75309-.48938 3.93318-1.00472 6.15625-1.5625 4.22398-1.05988 8.6624-2.45082 11.34375-5.09375-3.68787-8.18119-12.16411-11.74909-21.21875-11.53125z" fill="#e20909" stroke="#000" stroke-linecap="round" stroke-linejoin="round" stroke-width="2.5" transform="translate(-300 -300)"/><path d="m-194.09443 108.13666c-5.67831 5.10569-5.45242 14.45849 4.52391 13.34445-3.6953-2.53888-1.32538-8.51129 5.73489-9.50535 1.3313-2.25528.0714-6.40785-2.72043-7.00172-3.05954.21093-5.64565 1.46075-7.53837 3.16262zm12.34237 12.39545c-.46828.37836-.8907.80015-1.3026 1.19504-2.74581 2.63241-4.18819 5.6712-4.2523 8.66942-.0973 4.55738 4.96281 9.40496 11.55234 5.81448-5.16197-1.99302-4.34805-9.30592 4.01016-12.13922 1.04391-2.88386-1.48136-6.58434-5.04045-6.58537-1.88808.89452-3.56208 1.91034-4.96715 3.04565zm23.51205 6.18578c-3.43079 5.10966-3.71831 10.95163-1.10031 14.59483 2.48713 3.4612 9.10574 4.80031 14.31334-.58336-6.33205.45486-7.9059-7.13647-1.6809-11.54691-1.06837-4.78405-7.48916-6.17877-11.53213-2.46456z" fill="#e20909" stroke="#000" stroke-linecap="round" stroke-linejoin="round" stroke-width="2.489136"/><path d="m-237.9624 292.15008c-2.30372.14062-4.61405.65044-6.69224 1.56313-3.98478 3.17837-2.33445 9.17042 2.97433 10.78565 4.69179-5.06972 13.15081-2.57283 12.8268 3.12627 6.01442-5.34518 4.91149-10.40236 1.02243-13.13035-2.55845-1.79466-6.29173-2.57911-10.13132-2.3447z" fill="#e20909" stroke="#000" stroke-linecap="round" stroke-linejoin="round" stroke-width="2.489136" transform="matrix(.81915203 .57357645 -.57357645 .81915203 278.167458 -2.142197)"/></g><g stroke-linecap="round"><use height="660" transform="matrix(-1 0 0 1 -.169932 -.15625)" width="600" xlink:href="#c"/><path d="m-6.07577-135.75084s-40.66931 3.30861-38.9156 38.45568c2.23457 44.78441 43.77715 37.93326 37.22361 76.59912" fill="none" stroke="#000" stroke-linejoin="round" stroke-width="2.5"/><path d="m11.30872-133.62888c16.21036-19.39141 18.84184-30.29603 22.61586-41.91473" fill="none" stroke="#000" stroke-linejoin="round" stroke-width="2.5"/><path d="m57.299598-80.55699c-11.8549-20.52172-24.714498-12.00921-38.150718-.90464" fill="none" stroke="#000" stroke-linejoin="round" stroke-width="2.5"/><path d="m11.93161-212.29427c20.96601-3.24823 10.83293 20.1599 16.20505 30.27786" fill="none" stroke="#000" stroke-linejoin="round" stroke-width="2.5"/><path d="m12.7845-227.64642c11.78683-3.74357 15.08674 2.2122 19.1902 7.24962" fill="none" stroke="#000" stroke-linejoin="round" stroke-width="2.5"/><path d="m60.46052-3.96461c-5.15351-10.50877-13.15721-14.17709-22.31431-15.07724" fill="none" stroke="#000" stroke-linejoin="round" stroke-width="2.5"/><path d="m-37.24 11.71572c11.09326-11.11193 20.76894-12.30082 28.64676-.90463" fill="none" stroke="#000" stroke-linejoin="round" stroke-width="2.5"/></g><path d="m-180 179.11643c-10.9362 0-21.16807 2.94317-30 8.0625-3.18275 1.84486-6.55049 3.41276-10.0625 4.65625 4.4994 5.95656 9.11253 11.73478 13.8125 17.34375 7.93138-3.87843 16.82832-6.06251 26.25-6.0625 10.93992 0 21.16505 2.94137 30 8.0625 8.83193 5.11932 19.0638 8.06249 30 8.0625 10.93992 0 21.16505-2.94139 30-8.0625 8.83193-5.11932 19.0638-8.06251 30-8.0625 10.93992 0 21.16505 2.94137 30 8.0625 8.83193 5.11932 19.0638 8.06249 30 8.0625 10.9399 0 21.165-2.94139 30-8.0625 8.8319-5.11932 19.0638-8.06251 30-8.0625 10.9399 0 21.1651 2.94137 30 8.0625 8.8319 5.11932 19.0638 8.06249 30 8.0625 10.9399 0 21.1651-2.94139 30-8.0625 8.8319-5.11932 19.0638-8.06251 30-8.0625 9.4249 0 18.318 2.18329 26.25 6.0625 4.7-5.60897 9.3131-11.38719 13.8125-17.34375-3.5125-1.24353-6.8808-2.81204-10.0625-4.65625-8.8349-5.12112-19.0601-8.06251-30-8.0625-10.9362 0-21.1681 2.94317-30 8.0625-8.8349 5.12112-19.0601 8.06249-30 8.0625-10.9362 0-21.1681-2.94319-30-8.0625-8.8349-5.12112-19.0601-8.06251-30-8.0625-10.9362 0-21.1681 2.94317-30 8.0625-8.835 5.12112-19.0601 8.06249-30 8.0625-10.9362 0-21.16807-2.94319-30-8.0625-8.83495-5.12112-19.06008-8.06251-30-8.0625-10.9362 0-21.16807 2.94317-30 8.0625-8.83495 5.12112-19.06008 8.06249-30 8.0625-10.9362 0-21.16807-2.94319-30-8.0625-8.83495-5.12112-19.06008-8.06251-30-8.0625zm0 48c-3.29779 0-6.53687.26703-9.6875.78125 8.37343 8.95749 16.9385 17.40796 25.5625 25.375 4.99299 1.37483 9.7355 3.3619 14.125 5.90625 8.83193 5.11932 19.0638 8.06249 30 8.0625 10.93992 0 21.16505-2.94139 30-8.0625 8.83193-5.11932 19.0638-8.06251 30-8.0625 10.93992 0 21.16505 2.94137 30 8.0625 8.83193 5.11932 19.0638 8.06249 30 8.0625 10.9399 0 21.165-2.94139 30-8.0625 8.8319-5.11932 19.0638-8.06251 30-8.0625 10.9399 0 21.1651 2.94137 30 8.0625 8.8319 5.11932 19.0638 8.06249 30 8.0625 10.9399 0 21.1651-2.94139 30-8.0625 4.388-2.54345 9.1312-4.5312 14.125-5.90625 8.624-7.96704 17.1891-16.41751 25.5625-25.375-3.1504-.51404-6.3886-.78125-9.6875-.78125-10.9362 0-21.1681 2.94317-30 8.0625-8.8349 5.12112-19.0601 8.06249-30 8.0625-10.9362 0-21.1681-2.94319-30-8.0625-8.8349-5.12112-19.0601-8.06251-30-8.0625-10.9362 0-21.1681 2.94317-30 8.0625-8.835 5.12112-19.0601 8.06249-30 8.0625-10.9362 0-21.16807-2.94319-30-8.0625-8.83495-5.12112-19.06008-8.06251-30-8.0625-10.9362 0-21.16807 2.94317-30 8.0625-8.83495 5.12112-19.06008 8.06249-30 8.0625-10.9362 0-21.16807-2.94319-30-8.0625-8.83495-5.12112-19.06008-8.06251-30-8.0625zm120 48c-10.9362 0-21.16807 2.94317-30 8.0625-8.32523 4.82566-17.89608 7.71382-28.125 8.03125 8.56812 6.32034 16.9945 12.18168 25.15625 17.5625 1.003-.50886 1.9984-1.03129 2.96875-1.59375 8.83193-5.11932 19.0638-8.06251 30-8.0625 10.93992 0 21.16505 2.94137 30 8.0625 8.83193 5.11932 19.0638 8.06249 30 8.0625 10.9399 0 21.165-2.94139 30-8.0625 8.8319-5.11932 19.0638-8.06251 30-8.0625 10.9399 0 21.1651 2.94137 30 8.0625.97.56226 1.9659 1.08501 2.9688 1.59375 8.1617-5.38082 16.5881-11.24216 25.1562-17.5625-10.2265-.31761-19.8026-3.20729-28.125-8.03125-8.8349-5.12112-19.0601-8.06251-30-8.0625-10.9362 0-21.1681 2.94317-30 8.0625-8.835 5.12112-19.0601 8.06249-30 8.0625-10.9362 0-21.16807-2.94319-30-8.0625-8.83495-5.12112-19.06008-8.06251-30-8.0625zm0 48c-3.04935 0-6.044.24648-8.96875.6875 39.94855 23.69572 68.96875 34.59375 68.96875 34.59375s29.0202-10.89803 68.9688-34.59375c-2.9247-.44085-5.9184-.6875-8.9688-.6875-10.9362 0-21.1681 2.94317-30 8.0625-8.835 5.12112-19.0601 8.06249-30 8.0625-10.9362 0-21.16807-2.94319-30-8.0625-8.83495-5.12112-19.06008-8.06251-30-8.0625z" fill="#2b5df2" stroke="#000" stroke-width="2.5"/></g><use fill="url(#a)" height="660" width="600" xlink:href="#b"/></g><use fill="none" height="660" stroke="#000" stroke-width="3.000234" transform="matrix(1 0 0 .99984407 300 299.953579)" width="600" xlink:href="#b"/></svg>